<?xml version="1.0" encoding="UTF-8"?>
<svg id="logotype" xmlns="http://www.w3.org/2000/svg" version="1.1" viewBox="0 0 379.2 39.4">
  <defs>
    <style>
      .cls-1 {
        fill: #fff;
        fill-rule: evenodd;
        stroke-width: 0px;
      }
    </style>
  </defs>
  <g id="Morpheus">
    <path class="cls-1" d="M29.8,0v5.9h13.5c.7,0,1.2.5,1.2,1.2v32.3h7.5V9.4L42.7,0h-12.9ZM9.4,0L0,9.4v30h7.5V7.1c0-.7.5-1.2,1.2-1.2h12.4c.7,0,1.2.5,1.2,1.2v32.3h7.5V9.4L20.5,0h-11.1ZM68.8,0l-9.4,9.4v20.7l9.4,9.4h21l9.4-9.4V9.4L89.8,0h-21ZM91.6,7.1v25.2c0,.7-.5,1.2-1.2,1.2h-22.3c-.7,0-1.2-.5-1.2-1.2V7.1c0-.7.5-1.2,1.2-1.2h22.3c.7,0,1.2.5,1.2,1.2ZM115.9,0l-9.4,9.4v30h7.5V7.1c0-.7.5-1.2,1.2-1.2h23c.6,0,1.2.5,1.2,1.2v10.9c0,.6-.5,1.2-1.2,1.2h-14.5v5.9l8.8,14.3h14.5v-5.9h-10c-.4,0-.8-.2-1-.6l-4.8-7.9h6.4c3.6-3.7,5.7-5.7,9.4-9.4v-6.3C143.3,5.7,141.2,3.7,137.6,0h-21.6ZM163.1,0l-9.4,9.4v30h7.5V7.1c0-.7.5-1.2,1.2-1.2h22.6c.7,0,1.2.5,1.2,1.2v13.5c0,.7-.5,1.2-1.2,1.2h-13.2v5.9h12.5l9.4-9.4v-9L184.3,0h-21.3ZM208.6,16.7c-.7,0-1.2-.5-1.2-1.2V0h-7.5v13.3l9.4,9.4h20.9c.7,0,1.2.5,1.2,1.2v15.6h7.5v-13.3l-9.4-9.4h-20.9ZM200.1,39.4h7.5v-16.7h-7.5v16.7ZM238.7,0h-7.5v16.7h7.5V0ZM277.8,32.3c0,.6-.5,1.2-1.2,1.2h-21.1c-.6,0-1.2-.5-1.2-1.2V7.1c0-.6.5-1.2,1.2-1.2h28.8V0h-28.1l-9.4,9.4v30h29.1l9.4-9.4v-3.8h-7.5v6.1ZM277.6,22.7v-5.9h-15.7v5.9h15.7ZM323.2,32.3c0,.7-.5,1.2-1.2,1.2h-21c-.7,0-1.2-.5-1.2-1.2V0h-7.5v30l9.4,9.4h19.6l9.4-9.4V0h-7.5v32.3ZM369.8,16.9h-23.8c-.7,0-1.2-.5-1.2-1.2V7.1c0-.7.5-1.2,1.2-1.2h23.2c.7,0,1.2.5,1.2,1.2v6.1h7.5v-3.8L368.5,0h-21.8l-9.4,9.4v3.8l9.4,9.4h23.8c.7,0,1.2.5,1.2,1.2v8.6c0,.7-.5,1.2-1.2,1.2h-24c-.7,0-1.2-.5-1.2-1.2v-6.1h-7.5v3.8l9.4,9.4h22.7l9.4-9.4v-3.8l-9.4-9.4ZM85.3,19.6l-6.1-6.1-6.1,6.1,6.1,6.1,6.1-6.1Z"/>
  </g>
</svg>