<svg width="423" height="93" viewBox="0 0 423 93" fill="none" xmlns="http://www.w3.org/2000/svg">
<path d="M38.528 1.12H48.256L85.376 92H73.088L62.336 65.376H24.192L13.568 92H1.28L38.528 1.12ZM59.776 56.416L43.392 14.432L26.496 56.416H59.776ZM94.945 92V1.12H106.465V92H94.945Z" fill="white"/>
<path d="M128.195 1.12L155.587 38.752L182.979 1.12H195.907L161.987 47.2L194.883 92H181.955L155.587 55.648L129.219 92H116.163L149.059 47.2L115.139 1.12H128.195ZM237.064 92.64C230.664 92.64 224.861 91.36 219.656 88.8C214.451 86.24 209.928 82.784 206.088 78.432C202.333 73.9947 199.432 69.0453 197.384 63.584C195.336 58.0373 194.312 52.3627 194.312 46.56C194.312 40.5013 195.379 34.7413 197.512 29.28C199.731 23.7333 202.76 18.8267 206.6 14.56C210.525 10.208 215.091 6.79466 220.296 4.31999C225.501 1.75999 231.176 0.479996 237.32 0.479996C243.72 0.479996 249.523 1.80266 254.728 4.448C259.933 7.09333 264.413 10.6347 268.168 15.072C271.923 19.5093 274.824 24.4587 276.872 29.92C278.92 35.3813 279.944 40.9707 279.944 46.688C279.944 52.7467 278.877 58.5493 276.744 64.096C274.611 69.5573 271.581 74.464 267.656 78.816C263.816 83.0827 259.293 86.4533 254.088 88.928C248.883 91.4027 243.208 92.64 237.064 92.64ZM205.96 46.56C205.96 51.168 206.685 55.648 208.136 60C209.672 64.2667 211.805 68.064 214.536 71.392C217.267 74.72 220.552 77.3653 224.392 79.328C228.232 81.2907 232.499 82.272 237.192 82.272C242.056 82.272 246.408 81.248 250.248 79.2C254.088 77.152 257.331 74.4213 259.976 71.008C262.707 67.5947 264.755 63.7547 266.12 59.488C267.571 55.2213 268.296 50.912 268.296 46.56C268.296 41.952 267.528 37.5147 265.992 33.248C264.541 28.9813 262.408 25.184 259.592 21.856C256.861 18.4427 253.576 15.7973 249.736 13.92C245.981 11.9573 241.8 10.976 237.192 10.976C232.328 10.976 227.976 12 224.136 14.048C220.296 16.0107 217.011 18.6987 214.28 22.112C211.635 25.5253 209.587 29.3653 208.136 33.632C206.685 37.8133 205.96 42.1227 205.96 46.56ZM293.39 92V1.12H332.302C336.313 1.12 339.982 1.97333 343.31 3.67999C346.638 5.30133 349.539 7.52 352.014 10.336C354.489 13.0667 356.409 16.1813 357.774 19.68C359.139 23.0933 359.822 26.592 359.822 30.176C359.822 34.3573 359.011 38.3253 357.39 42.08C355.854 45.8347 353.635 49.0347 350.734 51.68C347.918 54.3253 344.59 56.16 340.75 57.184L362.766 92H349.71L328.974 59.36H304.91V92H293.39ZM304.91 49.12H332.43C335.587 49.12 338.318 48.2667 340.622 46.56C343.011 44.768 344.846 42.4213 346.126 39.52C347.491 36.6187 348.174 33.504 348.174 30.176C348.174 26.7627 347.406 23.648 345.87 20.832C344.334 17.9307 342.329 15.6267 339.854 13.92C337.379 12.2133 334.649 11.36 331.662 11.36H304.91V49.12Z" fill="white" fill-opacity="0.48"/>
<path d="M390.618 18.9549C390.618 10.3834 396.971 3.97743 405.088 3.97743C413.206 3.97743 419.471 10.3834 419.471 18.9549C419.471 27.5263 413.118 34.0226 405.088 34.0226C397.059 34.0226 390.618 27.6165 390.618 18.9549ZM405.088 37C414.706 37 423 29.421 423 18.9549C423 8.48871 414.706 1 405.088 1C395.471 1 387 8.57893 387 18.9549C387 29.3308 395.294 37 405.088 37ZM401.382 20.3985H404.912L410.294 29.421H413.735L407.912 20.218C410.912 19.8571 413.206 18.2331 413.206 14.4436C413.206 10.2932 410.824 8.48871 406.059 8.48871H398.294V29.3308H401.382V20.3083V20.3985ZM401.382 17.6917V11.1955H405.618C407.735 11.1955 410.029 11.6466 410.029 14.2631C410.029 17.421 407.647 17.6917 405.088 17.6917H401.382Z" fill="white"/>
</svg>
