<svg width="114" height="25" viewBox="0 0 114 25" fill="none" xmlns="http://www.w3.org/2000/svg">
<path d="M47.5078 12.0648C47.5078 18.4543 42.3557 23.6296 36.0058 23.6296C29.656 23.6296 24.5039 18.4543 24.5039 12.0648C24.5039 5.67527 29.656 0.5 36.0058 0.5C42.3557 0.5 47.5078 5.67527 47.5078 12.0648Z" fill="white" stroke="white"/>
<path d="M15.8717 3.8873L15.8717 3.88731C14.8035 4.96107 13.9561 6.23595 13.3778 7.63925L15.8717 3.8873ZM15.8717 3.8873C16.9399 2.81353 18.2079 1.96192 19.6031 1.38094C20.8442 0.864169 22.1645 0.570503 23.5039 0.511908M15.8717 3.8873L15.5172 3.53468C16.6317 2.41435 17.9548 1.52567 19.411 0.919354C20.7129 0.377235 22.0984 0.0703548 23.5039 0.0114497V0.511908M23.5039 0.511908V12.0658V23.6196C22.1645 23.5611 20.8442 23.2674 19.6032 22.7506L19.6031 22.7506C18.2079 22.1696 16.9399 21.318 15.8717 20.2443C14.8035 19.1705 13.9561 17.8956 13.3778 16.4923C12.7996 15.089 12.502 13.5848 12.502 12.0658C12.502 10.5467 12.7996 9.04257 13.3778 7.63928L23.5039 0.511908Z" fill="white" stroke="white"/>
<path d="M3.86976 3.88731L3.86977 3.8873C4.93793 2.81353 6.2059 1.96192 7.60119 1.38094L7.409 0.919354L7.60119 1.38094C8.84228 0.864169 10.1625 0.570503 11.5019 0.511908V12.0658V23.6196C10.1625 23.5611 8.8423 23.2674 7.6012 22.7506L7.60118 22.7506C6.20589 22.1696 4.93793 21.318 3.86976 20.2443C2.80159 19.1705 1.95412 17.8956 1.37589 16.4923C0.797649 15.089 0.5 13.5848 0.5 12.0658C0.5 10.5467 0.797647 9.04256 1.37588 7.63927L0.915232 7.44945L1.37589 7.63927C1.95412 6.23597 2.80158 4.96108 3.86976 3.88731Z" fill="white" stroke="white"/>
<mask id="path-4-inside-1_176_178" fill="white">
<path d="M54.3923 24.1625V21.8823C55.0831 21.8823 55.6432 21.8353 56.0725 21.7415C56.5019 21.6477 56.8287 21.4788 57.0527 21.2348C57.2954 20.9908 57.4635 20.6436 57.5568 20.1932C57.6501 19.724 57.6968 19.1328 57.6968 18.4197V0.825195H60.8333V18.476C60.8333 19.7897 60.6933 20.8688 60.4132 21.7134C60.1332 22.5391 59.6384 23.1584 58.929 23.5713C58.2196 23.9655 57.2114 24.1625 55.9045 24.1625H54.3923ZM66.5441 23.8529C65.9093 23.8529 65.3492 23.6746 64.8639 23.318C64.3784 22.9427 63.9957 22.4734 63.7157 21.9104C63.4356 21.3286 63.2956 20.7187 63.2956 20.0806C63.2956 19.0672 63.4636 18.2133 63.7997 17.5188C64.1357 16.8244 64.5931 16.2427 65.1719 15.7735C65.7693 15.2855 66.4507 14.8633 67.2162 14.5067C68.0004 14.1501 68.8218 13.8029 69.6806 13.4651V12.3109C69.6806 11.654 69.6432 11.1097 69.5686 10.6781C69.4939 10.2465 69.3352 9.92741 69.0925 9.72097C68.8685 9.49576 68.5231 9.38315 68.0564 9.38315C67.6456 9.38315 67.3096 9.47699 67.0482 9.66467C66.8055 9.85234 66.6282 10.1244 66.5161 10.481C66.4041 10.8189 66.3481 11.2223 66.3481 11.6915V12.5079L63.3796 12.3953C63.4169 10.5937 63.8277 9.27055 64.6118 8.42601C65.396 7.56271 66.6094 7.13106 68.2524 7.13106C69.858 7.13106 70.9969 7.5721 71.669 8.45416C72.3411 9.33623 72.6771 10.6125 72.6771 12.2827V19.7146C72.6771 20.2214 72.6864 20.7093 72.7051 21.1785C72.7424 21.6477 72.7797 22.0887 72.8171 22.5016C72.8732 22.8957 72.9198 23.271 72.9572 23.6276H70.2127C70.1567 23.3273 70.082 22.952 69.9887 22.5016C69.914 22.0324 69.858 21.6101 69.8207 21.2348C69.6339 21.8729 69.2699 22.4734 68.7285 23.0365C68.2057 23.5807 67.4776 23.8529 66.5441 23.8529ZM67.7203 21.2629C68.019 21.2629 68.299 21.1785 68.5605 21.0096C68.8218 20.8407 69.0551 20.653 69.2606 20.4466C69.4659 20.2214 69.6059 20.0431 69.6806 19.9117V15.2949C69.2139 15.5576 68.7751 15.8204 68.3644 16.0831C67.9537 16.3458 67.5896 16.6274 67.2723 16.9277C66.9735 17.2092 66.7308 17.5376 66.5441 17.913C66.3761 18.2696 66.2921 18.6824 66.2921 19.1516C66.2921 19.8084 66.4134 20.3246 66.6562 20.6999C66.8988 21.0752 67.2535 21.2629 67.7203 21.2629ZM77.1558 23.6276L73.9632 7.35627H76.9877L78.976 20.4466L80.9924 7.35627H83.9048L80.8243 23.6276H77.1558ZM88.2429 23.8529C87.6081 23.8529 87.048 23.6746 86.5627 23.318C86.0773 22.9427 85.6945 22.4734 85.4145 21.9104C85.1344 21.3286 84.9944 20.7187 84.9944 20.0806C84.9944 19.0672 85.1624 18.2133 85.4985 17.5188C85.8346 16.8244 86.2919 16.2427 86.8707 15.7735C87.4681 15.2855 88.1496 14.8633 88.9151 14.5067C89.6992 14.1501 90.5206 13.8029 91.3794 13.4651V12.3109C91.3794 11.654 91.3421 11.1097 91.2674 10.6781C91.1927 10.2465 91.0341 9.92741 90.7914 9.72097C90.5673 9.49576 90.222 9.38315 89.7552 9.38315C89.3444 9.38315 89.0084 9.47699 88.747 9.66467C88.5043 9.85234 88.327 10.1244 88.2149 10.481C88.1029 10.8189 88.0469 11.2223 88.0469 11.6915V12.5079L85.0784 12.3953C85.1157 10.5937 85.5265 9.27055 86.3106 8.42601C87.0948 7.56271 88.3083 7.13106 89.9512 7.13106C91.5568 7.13106 92.6957 7.5721 93.3678 8.45416C94.0399 9.33623 94.3759 10.6125 94.3759 12.2827V19.7146C94.3759 20.2214 94.3852 20.7093 94.4039 21.1785C94.4412 21.6477 94.4786 22.0887 94.516 22.5016C94.572 22.8957 94.6187 23.271 94.656 23.6276H91.9115C91.8555 23.3273 91.7808 22.952 91.6875 22.5016C91.6128 22.0324 91.5568 21.6101 91.5195 21.2348C91.3327 21.8729 90.9687 22.4734 90.4273 23.0365C89.9045 23.5807 89.1764 23.8529 88.2429 23.8529ZM89.4191 21.2629C89.7179 21.2629 89.9979 21.1785 90.2593 21.0096C90.5206 20.8407 90.754 20.653 90.9594 20.4466C91.1647 20.2214 91.3047 20.0431 91.3794 19.9117V15.2949C90.9127 15.5576 90.474 15.8204 90.0632 16.0831C89.6525 16.3458 89.2884 16.6274 88.9711 16.9277C88.6723 17.2092 88.4297 17.5376 88.2429 17.913C88.0749 18.2696 87.9909 18.6824 87.9909 19.1516C87.9909 19.8084 88.1122 20.3246 88.355 20.6999C88.5977 21.0752 88.9524 21.2629 89.4191 21.2629ZM100.507 23.8529C99.1812 23.8529 98.117 23.4399 97.3143 22.6142C96.5115 21.7697 96.0541 20.6624 95.9421 19.2924L98.4345 18.5323C98.5838 19.5645 98.8358 20.3433 99.1906 20.8688C99.5453 21.3756 100.068 21.6289 100.759 21.6289C101.3 21.6289 101.711 21.4788 101.991 21.1785C102.272 20.8595 102.412 20.4372 102.412 19.9117C102.412 19.4425 102.309 19.0202 102.103 18.6449C101.897 18.2696 101.561 17.8848 101.095 17.4907L98.3225 15.0978C97.7624 14.6099 97.2863 14.0656 96.8942 13.4651C96.5208 12.8645 96.3342 12.0857 96.3342 11.1285C96.3342 10.2652 96.5022 9.54268 96.8382 8.96089C97.1929 8.36033 97.6784 7.90991 98.2945 7.60963C98.9292 7.29059 99.6667 7.13106 100.507 7.13106C101.795 7.13106 102.776 7.55333 103.448 8.39786C104.138 9.22363 104.53 10.2277 104.624 11.41L102.608 12.1701C102.533 11.6071 102.421 11.1192 102.272 10.7063C102.121 10.2746 101.916 9.94618 101.655 9.72097C101.393 9.47699 101.048 9.355 100.619 9.355C100.133 9.355 99.7413 9.52391 99.4426 9.86172C99.1626 10.1807 99.0226 10.5655 99.0226 11.0159C99.0226 11.2974 99.0786 11.5789 99.1906 11.8605C99.3212 12.1232 99.536 12.386 99.8347 12.6487L102.692 15.2949C103.084 15.6515 103.448 16.0362 103.784 16.4491C104.138 16.862 104.428 17.3311 104.652 17.8567C104.876 18.3822 104.988 18.9921 104.988 19.6865C104.988 20.6061 104.801 21.3756 104.428 21.9949C104.054 22.6142 103.532 23.0834 102.86 23.4024C102.187 23.7027 101.403 23.8529 100.507 23.8529ZM111.041 23.8529C110.201 23.8529 109.52 23.6933 108.997 23.3743C108.493 23.0553 108.119 22.6049 107.876 22.023C107.652 21.4412 107.54 20.7562 107.54 19.968V9.355H105.832V7.35627H107.54V2.59872H110.537V7.35627H113.141V9.355H110.537V19.7709C110.537 20.4091 110.64 20.8688 110.845 21.1503C111.051 21.4131 111.443 21.5445 112.021 21.5445C112.171 21.5445 112.339 21.5351 112.525 21.5163C112.731 21.4975 112.927 21.4788 113.113 21.46V23.684C112.74 23.7403 112.395 23.7778 112.077 23.7966C111.76 23.8341 111.415 23.8529 111.041 23.8529Z"/>
</mask>
<path d="M54.3923 24.1625V21.8823C55.0831 21.8823 55.6432 21.8353 56.0725 21.7415C56.5019 21.6477 56.8287 21.4788 57.0527 21.2348C57.2954 20.9908 57.4635 20.6436 57.5568 20.1932C57.6501 19.724 57.6968 19.1328 57.6968 18.4197V0.825195H60.8333V18.476C60.8333 19.7897 60.6933 20.8688 60.4132 21.7134C60.1332 22.5391 59.6384 23.1584 58.929 23.5713C58.2196 23.9655 57.2114 24.1625 55.9045 24.1625H54.3923ZM66.5441 23.8529C65.9093 23.8529 65.3492 23.6746 64.8639 23.318C64.3784 22.9427 63.9957 22.4734 63.7157 21.9104C63.4356 21.3286 63.2956 20.7187 63.2956 20.0806C63.2956 19.0672 63.4636 18.2133 63.7997 17.5188C64.1357 16.8244 64.5931 16.2427 65.1719 15.7735C65.7693 15.2855 66.4507 14.8633 67.2162 14.5067C68.0004 14.1501 68.8218 13.8029 69.6806 13.4651V12.3109C69.6806 11.654 69.6432 11.1097 69.5686 10.6781C69.4939 10.2465 69.3352 9.92741 69.0925 9.72097C68.8685 9.49576 68.5231 9.38315 68.0564 9.38315C67.6456 9.38315 67.3096 9.47699 67.0482 9.66467C66.8055 9.85234 66.6282 10.1244 66.5161 10.481C66.4041 10.8189 66.3481 11.2223 66.3481 11.6915V12.5079L63.3796 12.3953C63.4169 10.5937 63.8277 9.27055 64.6118 8.42601C65.396 7.56271 66.6094 7.13106 68.2524 7.13106C69.858 7.13106 70.9969 7.5721 71.669 8.45416C72.3411 9.33623 72.6771 10.6125 72.6771 12.2827V19.7146C72.6771 20.2214 72.6864 20.7093 72.7051 21.1785C72.7424 21.6477 72.7797 22.0887 72.8171 22.5016C72.8732 22.8957 72.9198 23.271 72.9572 23.6276H70.2127C70.1567 23.3273 70.082 22.952 69.9887 22.5016C69.914 22.0324 69.858 21.6101 69.8207 21.2348C69.6339 21.8729 69.2699 22.4734 68.7285 23.0365C68.2057 23.5807 67.4776 23.8529 66.5441 23.8529ZM67.7203 21.2629C68.019 21.2629 68.299 21.1785 68.5605 21.0096C68.8218 20.8407 69.0551 20.653 69.2606 20.4466C69.4659 20.2214 69.6059 20.0431 69.6806 19.9117V15.2949C69.2139 15.5576 68.7751 15.8204 68.3644 16.0831C67.9537 16.3458 67.5896 16.6274 67.2723 16.9277C66.9735 17.2092 66.7308 17.5376 66.5441 17.913C66.3761 18.2696 66.2921 18.6824 66.2921 19.1516C66.2921 19.8084 66.4134 20.3246 66.6562 20.6999C66.8988 21.0752 67.2535 21.2629 67.7203 21.2629ZM77.1558 23.6276L73.9632 7.35627H76.9877L78.976 20.4466L80.9924 7.35627H83.9048L80.8243 23.6276H77.1558ZM88.2429 23.8529C87.6081 23.8529 87.048 23.6746 86.5627 23.318C86.0773 22.9427 85.6945 22.4734 85.4145 21.9104C85.1344 21.3286 84.9944 20.7187 84.9944 20.0806C84.9944 19.0672 85.1624 18.2133 85.4985 17.5188C85.8346 16.8244 86.2919 16.2427 86.8707 15.7735C87.4681 15.2855 88.1496 14.8633 88.9151 14.5067C89.6992 14.1501 90.5206 13.8029 91.3794 13.4651V12.3109C91.3794 11.654 91.3421 11.1097 91.2674 10.6781C91.1927 10.2465 91.0341 9.92741 90.7914 9.72097C90.5673 9.49576 90.222 9.38315 89.7552 9.38315C89.3444 9.38315 89.0084 9.47699 88.747 9.66467C88.5043 9.85234 88.327 10.1244 88.2149 10.481C88.1029 10.8189 88.0469 11.2223 88.0469 11.6915V12.5079L85.0784 12.3953C85.1157 10.5937 85.5265 9.27055 86.3106 8.42601C87.0948 7.56271 88.3083 7.13106 89.9512 7.13106C91.5568 7.13106 92.6957 7.5721 93.3678 8.45416C94.0399 9.33623 94.3759 10.6125 94.3759 12.2827V19.7146C94.3759 20.2214 94.3852 20.7093 94.4039 21.1785C94.4412 21.6477 94.4786 22.0887 94.516 22.5016C94.572 22.8957 94.6187 23.271 94.656 23.6276H91.9115C91.8555 23.3273 91.7808 22.952 91.6875 22.5016C91.6128 22.0324 91.5568 21.6101 91.5195 21.2348C91.3327 21.8729 90.9687 22.4734 90.4273 23.0365C89.9045 23.5807 89.1764 23.8529 88.2429 23.8529ZM89.4191 21.2629C89.7179 21.2629 89.9979 21.1785 90.2593 21.0096C90.5206 20.8407 90.754 20.653 90.9594 20.4466C91.1647 20.2214 91.3047 20.0431 91.3794 19.9117V15.2949C90.9127 15.5576 90.474 15.8204 90.0632 16.0831C89.6525 16.3458 89.2884 16.6274 88.9711 16.9277C88.6723 17.2092 88.4297 17.5376 88.2429 17.913C88.0749 18.2696 87.9909 18.6824 87.9909 19.1516C87.9909 19.8084 88.1122 20.3246 88.355 20.6999C88.5977 21.0752 88.9524 21.2629 89.4191 21.2629ZM100.507 23.8529C99.1812 23.8529 98.117 23.4399 97.3143 22.6142C96.5115 21.7697 96.0541 20.6624 95.9421 19.2924L98.4345 18.5323C98.5838 19.5645 98.8358 20.3433 99.1906 20.8688C99.5453 21.3756 100.068 21.6289 100.759 21.6289C101.3 21.6289 101.711 21.4788 101.991 21.1785C102.272 20.8595 102.412 20.4372 102.412 19.9117C102.412 19.4425 102.309 19.0202 102.103 18.6449C101.897 18.2696 101.561 17.8848 101.095 17.4907L98.3225 15.0978C97.7624 14.6099 97.2863 14.0656 96.8942 13.4651C96.5208 12.8645 96.3342 12.0857 96.3342 11.1285C96.3342 10.2652 96.5022 9.54268 96.8382 8.96089C97.1929 8.36033 97.6784 7.90991 98.2945 7.60963C98.9292 7.29059 99.6667 7.13106 100.507 7.13106C101.795 7.13106 102.776 7.55333 103.448 8.39786C104.138 9.22363 104.53 10.2277 104.624 11.41L102.608 12.1701C102.533 11.6071 102.421 11.1192 102.272 10.7063C102.121 10.2746 101.916 9.94618 101.655 9.72097C101.393 9.47699 101.048 9.355 100.619 9.355C100.133 9.355 99.7413 9.52391 99.4426 9.86172C99.1626 10.1807 99.0226 10.5655 99.0226 11.0159C99.0226 11.2974 99.0786 11.5789 99.1906 11.8605C99.3212 12.1232 99.536 12.386 99.8347 12.6487L102.692 15.2949C103.084 15.6515 103.448 16.0362 103.784 16.4491C104.138 16.862 104.428 17.3311 104.652 17.8567C104.876 18.3822 104.988 18.9921 104.988 19.6865C104.988 20.6061 104.801 21.3756 104.428 21.9949C104.054 22.6142 103.532 23.0834 102.86 23.4024C102.187 23.7027 101.403 23.8529 100.507 23.8529ZM111.041 23.8529C110.201 23.8529 109.52 23.6933 108.997 23.3743C108.493 23.0553 108.119 22.6049 107.876 22.023C107.652 21.4412 107.54 20.7562 107.54 19.968V9.355H105.832V7.35627H107.54V2.59872H110.537V7.35627H113.141V9.355H110.537V19.7709C110.537 20.4091 110.64 20.8688 110.845 21.1503C111.051 21.4131 111.443 21.5445 112.021 21.5445C112.171 21.5445 112.339 21.5351 112.525 21.5163C112.731 21.4975 112.927 21.4788 113.113 21.46V23.684C112.74 23.7403 112.395 23.7778 112.077 23.7966C111.76 23.8341 111.415 23.8529 111.041 23.8529Z" fill="white" stroke="white" stroke-width="2" mask="url(#path-4-inside-1_176_178)"/>
</svg>
