<svg width="66" height="24" viewBox="0 0 66 24" fill="none" xmlns="http://www.w3.org/2000/svg">
<mask id="path-1-inside-1_176_179" fill="white">
<path d="M7.04879 23.6334C5.40585 23.6334 4.12699 23.3049 3.21217 22.6481C2.29736 21.9725 1.65326 21.0623 1.27986 19.9174C0.925134 18.7726 0.747772 17.4871 0.747772 16.0607V7.95319C0.747772 6.39549 0.925134 5.05361 1.27986 3.92757C1.65326 2.78275 2.29736 1.90068 3.21217 1.28136C4.12699 0.643265 5.40585 0.324219 7.04879 0.324219C8.5237 0.324219 9.69055 0.596347 10.5494 1.1406C11.4081 1.66609 12.0242 2.41679 12.3977 3.3927C12.7711 4.36861 12.9578 5.53219 12.9578 6.88344V8.74142H9.48518V6.9679C9.48518 6.21719 9.44785 5.55096 9.37316 4.96916C9.29849 4.36861 9.09312 3.9088 8.75706 3.58975C8.42101 3.25194 7.85159 3.08303 7.04879 3.08303C6.26466 3.08303 5.6859 3.26132 5.31251 3.61791C4.93912 3.97449 4.69641 4.47182 4.58439 5.10992C4.49104 5.72924 4.44437 6.45179 4.44437 7.27756V16.7364C4.44437 17.7123 4.51905 18.5099 4.6684 19.1292C4.83643 19.7297 5.10714 20.1708 5.48053 20.4523C5.8726 20.715 6.39535 20.8464 7.04879 20.8464C7.83291 20.8464 8.393 20.6682 8.72906 20.3116C9.06511 19.9549 9.27048 19.4764 9.34516 18.8758C9.4385 18.2565 9.48518 17.5527 9.48518 16.7645V14.9065H12.9578V16.6519C12.9578 18.022 12.7804 19.2325 12.4257 20.2834C12.0897 21.3343 11.4922 22.1602 10.6334 22.7607C9.79323 23.3425 8.59837 23.6334 7.04879 23.6334ZM20.9247 23.6334C19.5991 23.6334 18.4883 23.3612 17.5921 22.817C16.7146 22.254 16.0425 21.4751 15.5758 20.4805C15.1277 19.467 14.8663 18.2472 14.7917 16.8208L17.9562 16.0889C18.0122 16.9522 18.1335 17.7404 18.3203 18.4536C18.5069 19.1667 18.8056 19.7392 19.2164 20.1708C19.6271 20.5837 20.1779 20.7901 20.8687 20.7901C21.6154 20.7901 22.1662 20.5743 22.5209 20.1426C22.8756 19.6922 23.053 19.1011 23.053 18.3691C23.053 17.3557 22.8196 16.5393 22.3529 15.92C21.8861 15.2818 21.2887 14.6344 20.5606 13.9775L17.2561 11.0498C16.472 10.3742 15.8745 9.63288 15.4638 8.82587C15.053 8.00011 14.8477 6.97728 14.8477 5.75739C14.8477 4.03079 15.3424 2.6983 16.3319 1.75993C17.3401 0.802788 18.7029 0.324219 20.4206 0.324219C21.3914 0.324219 22.2222 0.464975 22.913 0.746485C23.6224 1.028 24.1918 1.44088 24.6213 1.98514C25.0693 2.51063 25.4054 3.14872 25.6294 3.89942C25.8721 4.63135 26.0308 5.44773 26.1055 6.34857L22.997 7.05235C22.9596 6.32042 22.8663 5.65417 22.717 5.05362C22.5862 4.45306 22.3342 3.97449 21.9608 3.61791C21.6061 3.26132 21.0833 3.08303 20.3926 3.08303C19.6831 3.08303 19.1324 3.29886 18.7403 3.73051C18.3669 4.1434 18.1802 4.70642 18.1802 5.41958C18.1802 6.15151 18.3203 6.75207 18.6003 7.22126C18.8803 7.69044 19.3004 8.1784 19.8605 8.68512L23.165 11.6128C24.0612 12.3823 24.8359 13.2926 25.4894 14.3435C26.1615 15.3944 26.4976 16.6519 26.4976 18.1158C26.4976 19.223 26.2641 20.1989 25.7975 21.0435C25.3307 21.8692 24.6773 22.5073 23.8371 22.9578C22.997 23.4082 22.0262 23.6334 20.9247 23.6334ZM33.8799 23.6334C32.5544 23.6334 31.4435 23.3612 30.5473 22.817C29.6699 22.254 28.9978 21.4751 28.531 20.4805C28.0829 19.467 27.8216 18.2472 27.7469 16.8208L30.9114 16.0889C30.9674 16.9522 31.0887 17.7404 31.2755 18.4536C31.4622 19.1667 31.7608 19.7392 32.1716 20.1708C32.5824 20.5837 33.133 20.7901 33.8239 20.7901C34.5707 20.7901 35.1214 20.5743 35.4761 20.1426C35.8309 19.6922 36.0082 19.1011 36.0082 18.3691C36.0082 17.3557 35.7749 16.5393 35.3081 15.92C34.8413 15.2818 34.2439 14.6344 33.5158 13.9775L30.2113 11.0498C29.4272 10.3742 28.8298 9.63288 28.419 8.82587C28.0082 8.00011 27.8029 6.97728 27.8029 5.75739C27.8029 4.03079 28.2977 2.6983 29.2871 1.75993C30.2953 0.802788 31.6582 0.324219 33.3758 0.324219C34.3466 0.324219 35.1774 0.464975 35.8682 0.746485C36.5776 1.028 37.1471 1.44088 37.5765 1.98514C38.0245 2.51063 38.3606 3.14872 38.5846 3.89942C38.8274 4.63135 38.986 5.44773 39.0607 6.34857L35.9522 7.05235C35.9149 6.32042 35.8215 5.65417 35.6722 5.05362C35.5414 4.45306 35.2894 3.97449 34.916 3.61791C34.5613 3.26132 34.0386 3.08303 33.3478 3.08303C32.6384 3.08303 32.0876 3.29886 31.6955 3.73051C31.3222 4.1434 31.1354 4.70642 31.1354 5.41958C31.1354 6.15151 31.2754 6.75207 31.5555 7.22126C31.8355 7.69044 32.2556 8.1784 32.8157 8.68512L36.1202 11.6128C37.0164 12.3823 37.7912 13.2926 38.4446 14.3435C39.1167 15.3944 39.4528 16.6519 39.4528 18.1158C39.4528 19.223 39.2194 20.1989 38.7527 21.0435C38.2859 21.8692 37.6325 22.5073 36.7923 22.9578C35.9522 23.4082 34.9813 23.6334 33.8799 23.6334ZM41.0355 23.3519V19.7485H44.3681V23.3519H41.0355ZM46.7286 23.3519V0.549427H50.3132V23.3519H46.7286ZM59.4108 23.6334C57.8238 23.6334 56.5636 23.3331 55.6302 22.7326C54.6966 22.132 54.0245 21.278 53.6139 20.1708C53.2218 19.0448 53.0258 17.7216 53.0258 16.2015V7.58722C53.0258 6.06706 53.2311 4.76272 53.6419 3.67421C54.0525 2.58569 54.7153 1.75993 55.6302 1.1969C56.5636 0.615114 57.8238 0.324219 59.4108 0.324219C60.979 0.324219 62.2205 0.615114 63.1354 1.1969C64.0688 1.7787 64.741 2.61384 65.1517 3.70236C65.5624 4.7721 65.7678 6.06706 65.7678 7.58722V16.2015C65.7678 17.7216 65.5624 19.0354 65.1517 20.1426C64.741 21.2499 64.0688 22.1132 63.1354 22.7326C62.2205 23.3331 60.979 23.6334 59.4108 23.6334ZM59.4108 20.8464C60.1575 20.8464 60.7176 20.6869 61.0911 20.3679C61.4831 20.03 61.7445 19.5796 61.8752 19.0166C62.0058 18.4348 62.0712 17.7779 62.0712 17.046V6.79899C62.0712 6.04829 62.0058 5.40081 61.8752 4.85656C61.7445 4.29353 61.4831 3.86189 61.0911 3.5616C60.7176 3.24256 60.1575 3.08303 59.4108 3.08303C58.664 3.08303 58.0946 3.24256 57.7025 3.5616C57.3105 3.86189 57.049 4.29353 56.9184 4.85656C56.7877 5.40081 56.7224 6.04829 56.7224 6.79899V17.046C56.7224 17.7779 56.7877 18.4348 56.9184 19.0166C57.049 19.5796 57.3011 20.03 57.6745 20.3679C58.0666 20.6869 58.6453 20.8464 59.4108 20.8464Z"/>
</mask>
<path d="M7.04879 23.6334C5.40585 23.6334 4.12699 23.3049 3.21217 22.6481C2.29736 21.9725 1.65326 21.0623 1.27986 19.9174C0.925134 18.7726 0.747772 17.4871 0.747772 16.0607V7.95319C0.747772 6.39549 0.925134 5.05361 1.27986 3.92757C1.65326 2.78275 2.29736 1.90068 3.21217 1.28136C4.12699 0.643265 5.40585 0.324219 7.04879 0.324219C8.5237 0.324219 9.69055 0.596347 10.5494 1.1406C11.4081 1.66609 12.0242 2.41679 12.3977 3.3927C12.7711 4.36861 12.9578 5.53219 12.9578 6.88344V8.74142H9.48518V6.9679C9.48518 6.21719 9.44785 5.55096 9.37316 4.96916C9.29849 4.36861 9.09312 3.9088 8.75706 3.58975C8.42101 3.25194 7.85159 3.08303 7.04879 3.08303C6.26466 3.08303 5.6859 3.26132 5.31251 3.61791C4.93912 3.97449 4.69641 4.47182 4.58439 5.10992C4.49104 5.72924 4.44437 6.45179 4.44437 7.27756V16.7364C4.44437 17.7123 4.51905 18.5099 4.6684 19.1292C4.83643 19.7297 5.10714 20.1708 5.48053 20.4523C5.8726 20.715 6.39535 20.8464 7.04879 20.8464C7.83291 20.8464 8.393 20.6682 8.72906 20.3116C9.06511 19.9549 9.27048 19.4764 9.34516 18.8758C9.4385 18.2565 9.48518 17.5527 9.48518 16.7645V14.9065H12.9578V16.6519C12.9578 18.022 12.7804 19.2325 12.4257 20.2834C12.0897 21.3343 11.4922 22.1602 10.6334 22.7607C9.79323 23.3425 8.59837 23.6334 7.04879 23.6334ZM20.9247 23.6334C19.5991 23.6334 18.4883 23.3612 17.5921 22.817C16.7146 22.254 16.0425 21.4751 15.5758 20.4805C15.1277 19.467 14.8663 18.2472 14.7917 16.8208L17.9562 16.0889C18.0122 16.9522 18.1335 17.7404 18.3203 18.4536C18.5069 19.1667 18.8056 19.7392 19.2164 20.1708C19.6271 20.5837 20.1779 20.7901 20.8687 20.7901C21.6154 20.7901 22.1662 20.5743 22.5209 20.1426C22.8756 19.6922 23.053 19.1011 23.053 18.3691C23.053 17.3557 22.8196 16.5393 22.3529 15.92C21.8861 15.2818 21.2887 14.6344 20.5606 13.9775L17.2561 11.0498C16.472 10.3742 15.8745 9.63288 15.4638 8.82587C15.053 8.00011 14.8477 6.97728 14.8477 5.75739C14.8477 4.03079 15.3424 2.6983 16.3319 1.75993C17.3401 0.802788 18.7029 0.324219 20.4206 0.324219C21.3914 0.324219 22.2222 0.464975 22.913 0.746485C23.6224 1.028 24.1918 1.44088 24.6213 1.98514C25.0693 2.51063 25.4054 3.14872 25.6294 3.89942C25.8721 4.63135 26.0308 5.44773 26.1055 6.34857L22.997 7.05235C22.9596 6.32042 22.8663 5.65417 22.717 5.05362C22.5862 4.45306 22.3342 3.97449 21.9608 3.61791C21.6061 3.26132 21.0833 3.08303 20.3926 3.08303C19.6831 3.08303 19.1324 3.29886 18.7403 3.73051C18.3669 4.1434 18.1802 4.70642 18.1802 5.41958C18.1802 6.15151 18.3203 6.75207 18.6003 7.22126C18.8803 7.69044 19.3004 8.1784 19.8605 8.68512L23.165 11.6128C24.0612 12.3823 24.8359 13.2926 25.4894 14.3435C26.1615 15.3944 26.4976 16.6519 26.4976 18.1158C26.4976 19.223 26.2641 20.1989 25.7975 21.0435C25.3307 21.8692 24.6773 22.5073 23.8371 22.9578C22.997 23.4082 22.0262 23.6334 20.9247 23.6334ZM33.8799 23.6334C32.5544 23.6334 31.4435 23.3612 30.5473 22.817C29.6699 22.254 28.9978 21.4751 28.531 20.4805C28.0829 19.467 27.8216 18.2472 27.7469 16.8208L30.9114 16.0889C30.9674 16.9522 31.0887 17.7404 31.2755 18.4536C31.4622 19.1667 31.7608 19.7392 32.1716 20.1708C32.5824 20.5837 33.133 20.7901 33.8239 20.7901C34.5707 20.7901 35.1214 20.5743 35.4761 20.1426C35.8309 19.6922 36.0082 19.1011 36.0082 18.3691C36.0082 17.3557 35.7749 16.5393 35.3081 15.92C34.8413 15.2818 34.2439 14.6344 33.5158 13.9775L30.2113 11.0498C29.4272 10.3742 28.8298 9.63288 28.419 8.82587C28.0082 8.00011 27.8029 6.97728 27.8029 5.75739C27.8029 4.03079 28.2977 2.6983 29.2871 1.75993C30.2953 0.802788 31.6582 0.324219 33.3758 0.324219C34.3466 0.324219 35.1774 0.464975 35.8682 0.746485C36.5776 1.028 37.1471 1.44088 37.5765 1.98514C38.0245 2.51063 38.3606 3.14872 38.5846 3.89942C38.8274 4.63135 38.986 5.44773 39.0607 6.34857L35.9522 7.05235C35.9149 6.32042 35.8215 5.65417 35.6722 5.05362C35.5414 4.45306 35.2894 3.97449 34.916 3.61791C34.5613 3.26132 34.0386 3.08303 33.3478 3.08303C32.6384 3.08303 32.0876 3.29886 31.6955 3.73051C31.3222 4.1434 31.1354 4.70642 31.1354 5.41958C31.1354 6.15151 31.2754 6.75207 31.5555 7.22126C31.8355 7.69044 32.2556 8.1784 32.8157 8.68512L36.1202 11.6128C37.0164 12.3823 37.7912 13.2926 38.4446 14.3435C39.1167 15.3944 39.4528 16.6519 39.4528 18.1158C39.4528 19.223 39.2194 20.1989 38.7527 21.0435C38.2859 21.8692 37.6325 22.5073 36.7923 22.9578C35.9522 23.4082 34.9813 23.6334 33.8799 23.6334ZM41.0355 23.3519V19.7485H44.3681V23.3519H41.0355ZM46.7286 23.3519V0.549427H50.3132V23.3519H46.7286ZM59.4108 23.6334C57.8238 23.6334 56.5636 23.3331 55.6302 22.7326C54.6966 22.132 54.0245 21.278 53.6139 20.1708C53.2218 19.0448 53.0258 17.7216 53.0258 16.2015V7.58722C53.0258 6.06706 53.2311 4.76272 53.6419 3.67421C54.0525 2.58569 54.7153 1.75993 55.6302 1.1969C56.5636 0.615114 57.8238 0.324219 59.4108 0.324219C60.979 0.324219 62.2205 0.615114 63.1354 1.1969C64.0688 1.7787 64.741 2.61384 65.1517 3.70236C65.5624 4.7721 65.7678 6.06706 65.7678 7.58722V16.2015C65.7678 17.7216 65.5624 19.0354 65.1517 20.1426C64.741 21.2499 64.0688 22.1132 63.1354 22.7326C62.2205 23.3331 60.979 23.6334 59.4108 23.6334ZM59.4108 20.8464C60.1575 20.8464 60.7176 20.6869 61.0911 20.3679C61.4831 20.03 61.7445 19.5796 61.8752 19.0166C62.0058 18.4348 62.0712 17.7779 62.0712 17.046V6.79899C62.0712 6.04829 62.0058 5.40081 61.8752 4.85656C61.7445 4.29353 61.4831 3.86189 61.0911 3.5616C60.7176 3.24256 60.1575 3.08303 59.4108 3.08303C58.664 3.08303 58.0946 3.24256 57.7025 3.5616C57.3105 3.86189 57.049 4.29353 56.9184 4.85656C56.7877 5.40081 56.7224 6.04829 56.7224 6.79899V17.046C56.7224 17.7779 56.7877 18.4348 56.9184 19.0166C57.049 19.5796 57.3011 20.03 57.6745 20.3679C58.0666 20.6869 58.6453 20.8464 59.4108 20.8464Z" fill="white" stroke="white" stroke-width="2" mask="url(#path-1-inside-1_176_179)"/>
</svg>
