<svg width="69" height="26" viewBox="0 0 69 26" fill="none" xmlns="http://www.w3.org/2000/svg">
<path d="M12.093 24.1512C18.0586 24.1512 22.8947 19.2898 22.8947 13.2929C22.8947 7.296 18.0586 2.43457 12.093 2.43457C6.12737 2.43457 1.29126 7.296 1.29126 13.2929C1.29126 19.2898 6.12737 24.1512 12.093 24.1512Z" stroke="white" stroke-width="2.4"/>
<path d="M24.3343 23.7062L35.8329 2.32226C35.9464 2.11133 36.2474 2.11133 36.3608 2.32226L47.8595 23.7062C47.9675 23.9071 47.8228 24.1512 47.5955 24.1512H24.5982C24.3709 24.1512 24.2262 23.9071 24.3343 23.7062Z" stroke="white" stroke-width="2.4" stroke-linecap="round"/>
<path d="M51.6993 24.0315V2.55619C51.6993 2.48957 51.7531 2.43555 51.8194 2.43555H67.0776C67.1734 2.43555 67.2307 2.54294 67.1774 2.62312L60.3226 12.9593C60.1882 13.1619 60.1882 13.4259 60.3226 13.6285L67.1774 23.9646C67.2307 24.0448 67.1734 24.1522 67.0776 24.1522H51.8194C51.7531 24.1522 51.6993 24.0981 51.6993 24.0315Z" stroke="white" stroke-width="2.4" stroke-linecap="round"/>
</svg>
