<svg width="82" height="41" viewBox="0 0 82 41" fill="none" xmlns="http://www.w3.org/2000/svg">
<path d="M40.851 39.0994C51.317 39.0994 59.8014 30.5706 59.8014 20.0497C59.8014 9.52884 51.317 1 40.851 1C30.3849 1 21.9005 9.52884 21.9005 20.0497C21.9005 30.5706 30.3849 39.0994 40.851 39.0994Z" stroke="white" stroke-width="2"/>
<path d="M46.0814 12.1315L46.0814 12.1315C46.0857 12.1261 46.0873 12.1227 46.0879 12.1213C46.0885 12.1197 46.0888 12.1184 46.089 12.1168C46.0893 12.1133 46.0888 12.1066 46.0851 12.0987C46.0813 12.0908 46.0768 12.0868 46.0747 12.0854C46.0738 12.0848 46.0731 12.0845 46.0721 12.0842C46.0712 12.0839 46.068 12.083 46.0616 12.083H40.575C40.568 12.083 40.5607 12.0861 40.5552 12.0929L34.1398 20.0302L34.1398 20.0302C34.1309 20.0412 34.1309 20.0578 34.1398 20.0688L34.1398 20.0689L40.5552 28.0062L46.0814 12.1315ZM46.0814 12.1315L40.2053 19.4015M46.0814 12.1315L40.2053 19.4015M40.2053 19.4015C40.2053 19.4015 40.2053 19.4016 40.2053 19.4016M40.2053 19.4015L40.2053 19.4016M40.2053 19.4016C39.9 19.7793 39.9 20.3198 40.2053 20.6975M40.2053 19.4016L40.2053 20.6975M40.2053 20.6975L46.0814 27.9675L46.4702 27.6532L46.0814 27.9675C46.0835 27.9702 46.085 27.9724 46.0861 27.9742C46.087 27.9759 46.0876 27.9771 46.0879 27.9778C46.0881 27.9784 46.0883 27.979 46.0885 27.9795C46.0887 27.9804 46.0889 27.9813 46.089 27.9823C46.0893 27.9858 46.0888 27.9924 46.0851 28.0003C46.0814 28.0082 46.0768 28.0123 46.0747 28.0137C46.0739 28.0142 46.0731 28.0146 46.0721 28.0149C46.0712 28.0152 46.0681 28.016 46.0616 28.016H40.575C40.5681 28.016 40.5607 28.013 40.5553 28.0063L40.2053 20.6975Z" fill="white" stroke="white"/>
<path d="M69.5523 23.9282C69.5085 23.9897 69.4601 24.0451 69.4077 24.0951C69.5009 24.0308 69.5792 23.9586 69.645 23.8792L69.6511 23.8719L69.6512 23.8719C69.7797 23.7228 69.8812 23.5334 69.9482 23.2921L69.5523 23.9282ZM69.5523 23.9282C69.827 23.5452 69.9192 23.01 69.9192 22.4205C69.9192 22.0225 69.8659 21.656 69.7378 21.3394C69.6903 21.2125 69.6298 21.0946 69.5564 20.9872C69.5715 20.9992 69.5858 21.0114 69.5996 21.0238L69.5995 21.0239L69.6068 21.0302C69.7421 21.148 69.8503 21.3084 69.9237 21.53L69.926 21.5369L69.9285 21.5438C70.0085 21.7634 70.0563 22.0515 70.0563 22.4205C70.0563 22.7494 70.0185 23.0387 69.9482 23.2921L69.5523 23.9282ZM69.7211 19.1816C69.7863 18.9882 69.8246 18.7444 69.8246 18.4412C69.8246 18.1138 69.7837 17.8532 69.7144 17.6497L69.7132 17.6461L69.7133 17.6461C69.6497 17.4545 69.5599 17.3103 69.4498 17.2003C69.4773 17.2328 69.5034 17.2673 69.528 17.3038L69.7211 19.1816ZM69.7211 19.1816C69.7716 18.956 69.7929 18.7066 69.7929 18.4412C69.7929 18.0196 69.7338 17.6079 69.5281 17.3039L69.7211 19.1816ZM72.6795 16.9702L72.6795 16.9702C72.4448 17.1176 72.2651 17.3358 72.1452 17.6524C72.0238 17.9847 71.9555 18.4059 71.9555 18.928V22.177C71.9555 22.6987 72.0237 23.1344 72.1483 23.4931C72.2622 23.8137 72.4425 24.0426 72.6879 24.2038L72.6795 16.9702ZM72.6795 16.9702L72.682 16.9687M72.6795 16.9702L72.682 16.9687M72.682 16.9687C72.7368 16.9338 72.7979 16.9017 72.866 16.8729C72.832 16.8937 72.7988 16.9161 72.7666 16.9403C72.4955 17.1424 72.3324 17.428 72.2543 17.7508C72.1858 18.0269 72.1557 18.3407 72.1557 18.6846V22.4416C72.1557 22.7871 72.1861 23.1055 72.2531 23.3915L72.253 23.3915L72.2538 23.3948C72.3315 23.717 72.491 24.0003 72.7469 24.2127L72.7559 24.2202L72.7653 24.2273C72.806 24.258 72.8483 24.2858 72.8919 24.311M72.682 16.9687L72.8919 24.311M72.8919 24.311C72.8158 24.2793 72.7481 24.2433 72.688 24.2038L72.8919 24.311ZM66.782 24.3652H66.5923V16.7927H66.782V17.1818V19.8699V20.28V20.3699V20.78V24.0079V24.3652ZM69.008 20.1758C69.0099 20.1747 69.0119 20.1737 69.0138 20.1727L69.002 20.499C68.853 20.4189 68.69 20.3639 68.5177 20.329C68.6894 20.2995 68.8502 20.2524 68.9948 20.1824L69.0014 20.1792L69.008 20.1758ZM74.8891 16.9662L74.8892 16.9662C75.129 17.1219 75.3055 17.3424 75.4184 17.6502L75.4183 17.6502L75.4211 17.6573C75.5479 17.9876 75.6194 18.4068 75.6194 18.928V22.1876C75.6194 22.7003 75.5483 23.1258 75.4191 23.4741L75.419 23.4741L75.4165 23.4812C75.3018 23.8052 75.1221 24.0402 74.8802 24.2083C74.8219 24.2471 74.7558 24.2825 74.681 24.3138C74.7283 24.2863 74.774 24.2554 74.8177 24.221L74.8178 24.2211L74.828 24.2127C75.0838 24.0003 75.2434 23.717 75.3211 23.3948L75.3218 23.3917C75.3889 23.1054 75.4192 22.7869 75.4192 22.4416V18.6846C75.4192 18.341 75.3892 18.027 75.3206 17.7507C75.2429 17.4296 75.081 17.1452 74.8123 16.9433C74.7782 16.9169 74.743 16.8925 74.7068 16.8702C74.7747 16.899 74.8353 16.9312 74.8891 16.9662ZM77.8485 23.4821L77.5202 24.3652H77.4984L77.8485 23.4821ZM79.0013 20.1812L77.5516 16.7927H77.5694L78.7346 19.5163L79.2159 20.6415L79.2166 20.6398L79.2292 20.6693L80.8061 24.3652H80.7867L79.5272 21.4395L79.075 20.3891L79.0823 20.3707L79.0013 20.1812ZM80.6578 16.94L80.7152 16.7927H80.7209L80.6578 16.94Z" fill="white" stroke="white"/>
<path d="M3.45993 23.9282C3.41614 23.9897 3.36772 24.0451 3.31528 24.0951C3.40848 24.0308 3.48681 23.9586 3.55257 23.8793L3.55874 23.8718L3.55881 23.8719C3.68732 23.7228 3.78874 23.5335 3.85576 23.2921L3.45993 23.9282ZM3.45993 23.9282C3.73461 23.5452 3.82685 23.01 3.82685 22.4205C3.82685 22.0225 3.77352 21.656 3.64541 21.3393C3.59784 21.2124 3.53739 21.0945 3.46397 20.9871C3.47906 20.9991 3.49347 21.0114 3.50724 21.0238L3.50718 21.0239L3.51434 21.0301C3.64963 21.1479 3.75787 21.3084 3.83135 21.5301L3.83363 21.5369L3.83611 21.5437C3.91608 21.7634 3.96388 22.0515 3.96388 22.4205C3.96388 22.7494 3.9261 23.0387 3.85577 23.2921L3.45993 23.9282ZM3.62887 19.181C3.69396 18.9877 3.73226 18.7441 3.73226 18.4412C3.73226 18.1138 3.69131 17.8533 3.62205 17.6497L3.6208 17.646L3.62081 17.646C3.55728 17.4544 3.46746 17.3102 3.35725 17.2001C3.38479 17.2327 3.41096 17.2673 3.43565 17.3038L3.62887 19.181ZM3.62887 19.181C3.67929 18.9556 3.70052 18.7064 3.70052 18.4412C3.70052 18.0195 3.64135 17.6079 3.43573 17.3039L3.62887 19.181ZM15.1583 16.9062C15.1045 16.866 15.0481 16.831 14.9896 16.8009C14.985 16.7985 14.9804 16.7962 14.9758 16.7938C14.7542 16.6829 14.5037 16.6395 14.2502 16.6395C13.8615 16.6395 13.4931 16.7488 13.2088 17.0224C13.2087 17.0225 13.2085 17.0227 13.2084 17.0228L13.2128 17.0274L13.2133 17.027C13.4522 16.8337 13.7831 16.7188 14.2502 16.7188C14.543 16.7188 14.7778 16.7587 14.964 16.8263L14.9718 16.8291L14.9796 16.8317C15.0449 16.8529 15.1042 16.8779 15.1583 16.9062ZM15.1583 16.9062C15.2584 16.9585 15.3404 17.0225 15.4085 17.0967L15.4084 17.0967L15.4154 17.104C15.5333 17.2274 15.6363 17.3949 15.7152 17.6214L15.7177 17.6285L15.7204 17.6356C15.7682 17.7606 15.8088 17.903 15.8409 18.064L15.8067 18.0733L15.2614 16.9927M15.1583 16.9062C15.1939 16.9327 15.2283 16.9615 15.2614 16.9927M15.2614 16.9927C15.504 17.208 15.6602 17.4874 15.7439 17.8041C15.7441 17.8046 15.7442 17.8052 15.7444 17.8058L15.2609 17.9332L15.2614 16.9927ZM0.689662 24.3652H0.5V16.7927H0.689662V17.1818V19.8699V20.28V20.3699V20.78V24.0079V24.3652ZM2.91567 20.1757C2.91759 20.1747 2.9195 20.1737 2.92141 20.1727L2.90961 20.4989C2.7606 20.4188 2.59766 20.3638 2.42537 20.329C2.59703 20.2995 2.75777 20.2524 2.90242 20.1824L2.90909 20.1792L2.91567 20.1757ZM12.7701 22.8339L12.8558 22.8107C12.8775 22.934 12.9033 23.0558 12.9333 23.1762L12.9331 23.1762L12.9362 23.1874C13.0308 23.5331 13.1877 23.8405 13.4186 24.092L13.4185 24.0921L13.4254 24.0993C13.5001 24.1775 13.5815 24.2437 13.6681 24.2986C13.6201 24.2756 13.575 24.2505 13.5326 24.2234C13.2954 24.0673 13.111 23.8512 12.9794 23.5591C12.8845 23.3484 12.8136 23.1076 12.7701 22.8339ZM15.8374 23.7704C15.7515 23.9184 15.6457 24.0415 15.5178 24.142L15.1872 23.7645L15.556 24.1021C15.5561 24.1019 15.5562 24.1018 15.5563 24.1017C15.8281 23.8045 15.9293 23.4172 15.9293 23.0131C15.9293 22.5536 15.8255 22.1277 15.5677 21.7839C15.3685 21.512 15.1234 21.2478 14.8372 20.9904L14.8372 20.9904L14.8346 20.9881L13.4028 19.7181L13.4012 19.7167C13.1647 19.5086 13.0045 19.2956 12.9049 19.0805C12.8089 18.8664 12.7499 18.5782 12.7499 18.1978C12.7499 17.6678 12.8978 17.3252 13.1341 17.097L13.1341 17.097C13.1416 17.0898 13.1491 17.0827 13.1568 17.0757C12.9039 17.3512 12.8132 17.713 12.8132 18.0814C12.8132 18.3919 12.8626 18.6899 12.9918 18.9496L12.9955 18.957L12.9994 18.9643C13.1261 19.1992 13.3125 19.4159 13.5371 19.6176L13.5371 19.6176L13.5407 19.6208L14.9831 20.8907L14.9844 20.8919C15.267 21.1389 15.5198 21.4388 15.7416 21.7955L15.7416 21.7955L15.7438 21.799C15.9308 22.0943 16.0348 22.4602 16.0348 22.9178C16.0348 23.2699 15.9625 23.5482 15.8374 23.7704ZM9.75917 16.7927V17.1818V24.3652H9.56947V17.1818V16.7927H9.75917ZM6.0842 24.3652V16.7927H6.25282V24.3652H6.0842Z" fill="white" stroke="white"/>
</svg>
