<svg width="110" height="40" viewBox="0 0 110 40" fill="none" xmlns="http://www.w3.org/2000/svg">
<mask id="path-1-inside-1_4141_625" fill="white">
<path d="M15.6548 10.643C15.4333 11.0489 15.1403 11.5856 14.7757 12.2533C14.4241 12.921 14.0138 13.6672 13.545 14.4919C13.0892 15.3166 12.5878 16.2068 12.0409 17.1625C11.5069 18.105 10.9469 19.0541 10.3609 20.0098C9.78791 20.9655 9.19531 21.908 8.58321 22.8374C7.98421 23.7539 7.39812 24.6048 6.82516 25.3902C8.23166 25.2463 9.58597 24.8862 10.8883 24.3102C12.1906 23.7342 13.4083 23.0207 14.5413 22.1698C15.6873 21.3058 16.7291 20.3436 17.6668 19.2832C18.6174 18.2098 19.4249 17.1035 20.089 15.9646C20.7662 14.8126 21.2872 13.6606 21.6518 12.5086C22.0295 11.3566 22.2183 10.2699 22.2183 9.24886C22.2183 8.38487 22.1076 7.58631 21.8862 6.85321C21.6778 6.12011 21.3523 5.48519 20.9095 4.94845C20.4797 4.41172 19.9262 3.9928 19.249 3.6917C18.5718 3.3906 17.7775 3.24005 16.8658 3.24005C16.0193 3.24005 15.1664 3.32515 14.3068 3.49533C13.4603 3.65243 12.6464 3.86843 11.865 4.14334C11.0836 4.41826 10.3609 4.74554 9.69669 5.12518C9.04559 5.49174 8.4856 5.89101 8.01672 6.32302C7.49584 6.89903 7.03352 7.47504 6.62982 8.05105C6.23912 8.62706 5.84844 9.14416 5.45775 9.60236C5.08009 10.0605 4.66986 10.4336 4.22709 10.7217C3.78431 11.0096 3.26338 11.1537 2.66434 11.1537C1.54436 11.1537 0.984375 10.6562 0.984375 9.66128C0.984375 9.03288 1.18623 8.35869 1.58994 7.63867C1.99365 6.90558 2.55364 6.18556 3.26989 5.47863C3.99918 4.75863 4.8587 4.07135 5.84844 3.41678C6.8512 2.74914 7.95161 2.16658 9.1498 1.66912C10.3479 1.15857 11.6241 0.752736 12.9785 0.451639C14.3328 0.150548 15.7264 0 17.1589 0C18.8258 0 20.2779 0.24873 21.515 0.746191C22.7522 1.24366 23.7745 1.93094 24.5819 2.80805C25.4024 3.67206 26.0079 4.69318 26.3986 5.87137C26.8024 7.04957 27.0042 8.31942 27.0042 9.68088C27.0042 11.0424 26.7697 12.4694 26.301 13.9617C25.8452 15.4541 25.168 16.9203 24.2693 18.3603C23.3838 19.8003 22.2834 21.1684 20.9681 22.4644C19.6658 23.7604 18.1617 24.8993 16.4556 25.8812C14.7626 26.8631 12.8808 27.6419 10.8102 28.2179C8.75254 28.7939 6.52563 29.082 4.12941 29.082C3.6085 29.082 3.19827 28.9118 2.89874 28.5714C2.59922 28.2442 2.44945 27.8383 2.44945 27.3539C2.44945 26.9742 2.51457 26.6077 2.64479 26.2543C2.77502 25.9008 2.94432 25.5735 3.1527 25.2724L11.1813 9.22925C11.559 8.64015 11.9302 8.16887 12.2948 7.8154C12.6725 7.46195 13.0175 7.18703 13.3301 6.99066C13.6557 6.7943 13.9422 6.66993 14.1896 6.61757C14.4371 6.55211 14.6259 6.51938 14.7561 6.51938C15.3422 6.51938 15.7589 6.68957 16.0063 7.02994C16.2537 7.37031 16.3775 7.77613 16.3775 8.24741C16.3775 8.62706 16.3124 9.02634 16.1821 9.44522C16.0519 9.86417 15.8761 10.2634 15.6548 10.643ZM31.5948 11.35C31.5948 11.0489 31.6468 10.7413 31.751 10.4271C31.8683 10.0998 32.0376 9.80525 32.2589 9.54344C32.4804 9.28164 32.7538 9.06561 33.0794 8.89542C33.418 8.72524 33.8152 8.64015 34.271 8.64015C35.0263 8.64015 35.5538 8.7907 35.8533 9.0918C36.1528 9.37976 36.3026 9.74633 36.3026 10.1914C36.3026 10.4402 36.2505 10.7151 36.1463 11.0162C36.0551 11.3173 35.9119 11.5988 35.7165 11.8606C35.5212 12.1093 35.2672 12.3187 34.9547 12.489C34.6421 12.6592 34.271 12.7442 33.8412 12.7442C33.0339 12.7442 32.4674 12.6199 32.1417 12.3711C31.8162 12.1093 31.6338 11.7689 31.5948 11.35ZM29.446 15.7683C29.6674 15.4017 29.9214 15.1399 30.2078 14.9829C30.4943 14.8257 30.7874 14.7472 31.0868 14.7472C31.5817 14.7472 32.005 14.9108 32.3566 15.2381C32.7213 15.5523 32.9036 15.9581 32.9036 16.4556C32.8905 16.5734 32.871 16.6912 32.845 16.8091C32.8319 16.9268 32.7929 17.0446 32.7278 17.1625C32.5455 17.5029 32.3957 17.7908 32.2785 18.0265C32.1613 18.2622 32.0506 18.4847 31.9464 18.6942C31.8553 18.8905 31.7641 19.0869 31.6729 19.2832C31.5817 19.4796 31.4711 19.7153 31.3408 19.9901C31.1846 20.3174 31.0087 20.6774 30.8134 21.0701C30.6181 21.4498 30.4292 21.8426 30.2469 22.2484C30.0776 22.6542 29.9279 23.0535 29.7976 23.4462C29.6804 23.8389 29.6218 24.1989 29.6218 24.5262C29.6218 24.8797 29.7064 25.1154 29.8757 25.2332C30.0581 25.3379 30.312 25.3902 30.6376 25.3902C31.0022 25.3902 31.3799 25.3117 31.7706 25.1546C32.1743 24.9975 32.578 24.7946 32.9818 24.5459C33.3854 24.2972 33.7827 24.0157 34.1733 23.7015C34.564 23.3742 34.9287 23.047 35.2672 22.7197C35.6189 22.3923 35.9379 22.0782 36.2245 21.7771C36.5239 21.476 36.7714 21.2077 36.9667 20.972C37.2272 20.7233 37.4877 20.5989 37.7481 20.5989C37.9826 20.5989 38.1714 20.7037 38.3146 20.9131C38.4709 21.1225 38.549 21.3909 38.549 21.7182C38.549 22.0192 38.4709 22.3401 38.3146 22.6804C38.1714 23.0207 37.9304 23.3415 37.5918 23.6426C36.9277 24.3233 36.2505 24.9779 35.5603 25.6063C34.8701 26.2215 34.1603 26.7714 33.431 27.2558C32.7147 27.727 31.992 28.1066 31.2627 28.3947C30.5335 28.6827 29.7976 28.8267 29.0553 28.8267C28.0004 28.8267 27.167 28.5584 26.5549 28.0216C25.9558 27.4717 25.6564 26.6208 25.6564 25.4688C25.6564 24.8666 25.741 24.2775 25.9103 23.7015C26.0795 23.1255 26.2815 22.5691 26.5158 22.0324C26.7502 21.4826 26.9977 20.9589 27.2581 20.4615C27.5186 19.9509 27.74 19.4665 27.9223 19.0084C27.9874 18.8382 28.0982 18.5764 28.2544 18.2229C28.4237 17.8694 28.5995 17.5094 28.7819 17.1429C28.9902 16.7108 29.2115 16.2527 29.446 15.7683ZM45.3274 14.0599C45.9004 14.0599 46.4018 14.1319 46.8316 14.2759C47.2614 14.4199 47.626 14.577 47.9256 14.7472C48.2641 14.9566 48.5637 15.1857 48.8241 15.4345C49.0064 15.3166 49.2018 15.2053 49.4102 15.1006C49.5924 15.009 49.7944 14.9305 50.0157 14.865C50.2371 14.7864 50.4585 14.7472 50.6799 14.7472C51.2529 14.7472 51.6957 14.865 52.0082 15.1006C52.3208 15.3363 52.4771 15.6178 52.4771 15.945C52.4771 16.1152 52.4315 16.2853 52.3403 16.4556L47.7692 25.1546L48.1404 24.8208C49.6771 23.9175 50.9403 23.2105 51.9301 22.7C52.9199 22.1764 53.7077 21.7902 54.2938 21.5415C54.8798 21.2927 55.2965 21.1422 55.544 21.0898C55.8044 21.0244 55.9672 20.9916 56.0324 20.9916C56.3318 20.9916 56.5598 21.1095 56.716 21.3451C56.8853 21.5676 56.9699 21.8491 56.9699 22.1895C56.9699 22.5691 56.8593 22.9553 56.6379 23.3481C56.4295 23.7408 56.104 24.0222 55.6612 24.1924C55.0751 24.4935 54.3914 24.8208 53.6101 25.1743C52.8287 25.5146 52.0147 25.8942 51.1683 26.3132C50.3217 26.732 49.4687 27.2034 48.6093 27.727C47.7627 28.2375 46.9683 28.8071 46.2261 29.4355L42.4364 36.3279C42.1238 37.0741 41.8373 37.6829 41.5768 38.1541C41.3294 38.6254 41.082 38.9985 40.8345 39.2734C40.5871 39.5483 40.3331 39.7381 40.0727 39.8429C39.8122 39.9476 39.5127 40 39.1741 40C38.6663 40 38.2625 39.8232 37.963 39.4697C37.6765 39.1164 37.5333 38.6909 37.5333 38.1934C37.5333 37.6698 37.657 37.061 37.9044 36.3672C38.1518 35.6734 38.4969 34.9206 38.9397 34.109C39.3955 33.3104 39.9425 32.466 40.5806 31.5759C41.2188 30.6987 41.9285 29.8019 42.7098 28.8856L45.1321 25.783C44.6372 26.2412 44.1488 26.6339 43.6671 26.9612C43.1852 27.2884 42.7229 27.5569 42.2801 27.7663C41.8373 27.9627 41.4206 28.1066 41.0299 28.1983C40.6522 28.2899 40.3201 28.3358 40.0337 28.3358C39.5127 28.3358 39.0309 28.2179 38.5881 27.9823C38.1453 27.7335 37.7611 27.3932 37.4356 26.9612C37.123 26.5292 36.8756 26.0186 36.6932 25.4296C36.5109 24.8404 36.4198 24.1989 36.4198 23.5051C36.4198 22.0651 36.6932 20.7625 37.2402 19.5974C37.8002 18.4323 38.5099 17.444 39.3695 16.6323C40.242 15.8076 41.1992 15.1727 42.241 14.7275C43.2959 14.2824 44.3247 14.0599 45.3274 14.0599ZM44.5851 17.516C43.9731 17.516 43.3805 17.673 42.8075 17.9872C42.2345 18.2883 41.7267 18.6942 41.2839 19.2047C40.841 19.7022 40.4895 20.2782 40.229 20.9327C39.9686 21.5873 39.8383 22.2614 39.8383 22.9553C39.8383 23.1648 39.8514 23.3938 39.8774 23.6426C39.9165 23.8782 39.9881 24.1008 40.0922 24.3102C40.2094 24.5197 40.3722 24.6964 40.5806 24.8404C40.802 24.9713 41.1016 25.0368 41.4792 25.0368C41.7527 25.0368 42.0717 24.919 42.4364 24.6833C42.814 24.4346 43.1982 24.127 43.5889 23.7604C43.9926 23.3808 44.3833 22.9684 44.7609 22.5233C45.1386 22.0651 45.4773 21.62 45.7767 21.188C46.0893 20.756 46.3367 20.3698 46.519 20.0295C46.7014 19.676 46.7926 19.4142 46.7926 19.2439C46.7926 18.956 46.7144 18.7073 46.5581 18.4977C46.4018 18.2752 46.2065 18.0919 45.9721 17.948C45.7507 17.8039 45.5098 17.6992 45.2493 17.6338C45.0019 17.5552 44.7806 17.516 44.5851 17.516ZM59.4118 11.35C59.4118 11.0489 59.4638 10.7413 59.568 10.4271C59.6853 10.0998 59.8546 9.80525 60.0759 9.54344C60.2974 9.28164 60.5708 9.06561 60.8964 8.89542C61.235 8.72524 61.6322 8.64015 62.0879 8.64015C62.8433 8.64015 63.3708 8.7907 63.6703 9.0918C63.9697 9.37976 64.1196 9.74633 64.1196 10.1914C64.1196 10.4402 64.0675 10.7151 63.9632 11.0162C63.8721 11.3173 63.7289 11.5988 63.5336 11.8606C63.3382 12.1093 63.0842 12.3187 62.7717 12.489C62.4591 12.6592 62.0879 12.7442 61.6583 12.7442C60.8508 12.7442 60.2844 12.6199 59.9587 12.3711C59.6331 12.1093 59.4508 11.7689 59.4118 11.35ZM57.263 15.7683C57.4844 15.4017 57.7383 15.1399 58.0248 14.9829C58.3113 14.8257 58.6044 14.7472 58.9038 14.7472C59.3987 14.7472 59.822 14.9108 60.1736 15.2381C60.5383 15.5523 60.7205 15.9581 60.7205 16.4556C60.7075 16.5734 60.688 16.6912 60.662 16.8091C60.6489 16.9268 60.6099 17.0446 60.5448 17.1625C60.3625 17.5029 60.2126 17.7908 60.0954 18.0265C59.9783 18.2622 59.8676 18.4847 59.7634 18.6942C59.6723 18.8905 59.581 19.0869 59.4899 19.2832C59.3987 19.4796 59.2881 19.7153 59.1579 19.9901C59.0015 20.3174 58.8257 20.6774 58.6304 21.0701C58.4351 21.4498 58.2462 21.8426 58.0639 22.2484C57.8946 22.6542 57.7448 23.0535 57.6146 23.4462C57.4974 23.8389 57.4388 24.1989 57.4388 24.5262C57.4388 24.8797 57.5234 25.1154 57.6927 25.2332C57.8751 25.3379 58.129 25.3902 58.4546 25.3902C58.8192 25.3902 59.1969 25.3117 59.5875 25.1546C59.9913 24.9975 60.395 24.7946 60.7987 24.5459C61.2024 24.2972 61.5997 24.0157 61.9903 23.7015C62.381 23.3742 62.7457 23.047 63.0842 22.7197C63.4359 22.3923 63.7549 22.0782 64.0415 21.7771C64.3409 21.476 64.5884 21.2077 64.7838 20.972C65.0442 20.7233 65.3047 20.5989 65.5651 20.5989C65.7995 20.5989 65.9884 20.7037 66.1316 20.9131C66.2879 21.1225 66.366 21.3909 66.366 21.7182C66.366 22.0192 66.2879 22.3401 66.1316 22.6804C65.9884 23.0207 65.7474 23.3415 65.4089 23.6426C64.7447 24.3233 64.0675 24.9779 63.3773 25.6063C62.687 26.2215 61.9773 26.7714 61.248 27.2558C60.5317 27.727 59.809 28.1066 59.0797 28.3947C58.3504 28.6827 57.6146 28.8267 56.8723 28.8267C55.8174 28.8267 54.984 28.5584 54.3719 28.0216C53.7728 27.4717 53.4734 26.6208 53.4734 25.4688C53.4734 24.8666 53.558 24.2775 53.7273 23.7015C53.8965 23.1255 54.0985 22.5691 54.3328 22.0324C54.5672 21.4826 54.8147 20.9589 55.0751 20.4615C55.3356 19.9509 55.557 19.4665 55.7393 19.0084C55.8044 18.8382 55.9151 18.5764 56.0714 18.2229C56.2407 17.8694 56.4165 17.5094 56.5989 17.1429C56.8072 16.7108 57.0285 16.2527 57.263 15.7683ZM69.9017 17.4177C69.4199 18.3603 68.9641 19.2832 68.5344 20.1865C68.1046 21.0767 67.7009 21.9015 67.3232 22.6608C67.167 22.975 67.0106 23.3415 66.8544 23.7604C66.7111 24.1663 66.6395 24.5262 66.6395 24.8404C66.6395 25.0237 66.6786 25.1677 66.7567 25.2724C66.8479 25.3772 66.9911 25.4296 67.1865 25.4296C67.4599 25.4296 67.8051 25.3509 68.2217 25.1939C68.6385 25.0237 69.0878 24.8077 69.5697 24.5459C70.0515 24.2709 70.5594 23.9633 71.0933 23.623C71.6273 23.2695 72.1482 22.9095 72.6561 22.543C73.177 22.1633 73.6719 21.7902 74.1407 21.4236C74.6096 21.044 75.0262 20.697 75.3909 20.3829C75.5993 20.2389 75.7947 20.1669 75.977 20.1669C76.1983 20.1669 76.3807 20.2651 76.5239 20.4615C76.6672 20.6578 76.7388 20.9066 76.7388 21.2077C76.7388 21.5087 76.6672 21.8164 76.5239 22.1305C76.3807 22.4447 76.1202 22.7524 75.7425 23.0535C74.896 23.8258 74.0366 24.559 73.164 25.2528C72.3045 25.9466 71.445 26.5619 70.5854 27.0986C69.739 27.6223 68.8989 28.0412 68.0655 28.3554C67.2321 28.6696 66.4247 28.8267 65.6432 28.8267C65.1223 28.8267 64.6861 28.7547 64.3344 28.6106C63.9829 28.4797 63.6963 28.2964 63.475 28.0609C63.2665 27.8121 63.1168 27.5306 63.0256 27.2164C62.9345 26.8892 62.8889 26.5422 62.8889 26.1758C62.8889 25.5211 62.9996 24.8404 63.2209 24.1335C63.4424 23.4266 63.6898 22.7917 63.9632 22.2288C64.354 21.4171 64.7382 20.612 65.1158 19.8134C65.5065 19.0149 65.8842 18.249 66.2488 17.516H65.4089C64.6796 17.516 64.1782 17.3981 63.9046 17.1625C63.6312 16.9268 63.4945 16.6585 63.4945 16.3573C63.4945 16.2264 63.5336 16.0694 63.6117 15.8861C63.7028 15.6898 63.8265 15.513 63.9828 15.3559C64.1521 15.1857 64.354 15.0417 64.5883 14.9239C64.8228 14.8061 65.0897 14.7472 65.3893 14.7472H67.499L71.6208 6.51938C71.8812 6.02192 72.2003 5.66846 72.5779 5.459C72.9686 5.23645 73.3724 5.12518 73.7891 5.12518C74.1798 5.12518 74.538 5.22991 74.8635 5.43936C75.1891 5.64883 75.3519 5.99574 75.3519 6.48011C75.3519 6.72884 75.2933 6.98412 75.1761 7.24595C75.0718 7.49467 74.9286 7.78922 74.7463 8.12959C74.6291 8.35215 74.4858 8.62051 74.3165 8.93469C74.1472 9.23579 73.9649 9.56305 73.7695 9.91655C73.5872 10.2569 73.3919 10.6169 73.1835 10.9965C72.9882 11.3762 72.7929 11.7428 72.5974 12.0963C72.1547 12.9341 71.6859 13.8177 71.191 14.7472H77.5592C77.8718 14.7472 78.1582 14.7668 78.4188 14.8061C78.6792 14.8322 78.9006 14.8977 79.0829 15.0025C79.2782 15.0941 79.428 15.225 79.5322 15.3952C79.6364 15.5654 79.6885 15.7944 79.6885 16.0825C79.6885 16.2264 79.6625 16.3705 79.6104 16.5145C79.5713 16.6585 79.4867 16.7894 79.3564 16.9072C79.2392 17.025 79.0699 17.1232 78.8484 17.2018C78.6401 17.2803 78.3667 17.3327 78.028 17.3588L69.9017 17.4177ZM82.4623 16.7501C82.3972 16.737 82.3386 16.7304 82.2866 16.7304C82.2345 16.7304 82.1759 16.7304 82.1108 16.7304C81.6159 16.7304 81.1535 16.8287 80.7238 17.025C80.2941 17.2214 79.8968 17.4832 79.5322 17.8104C79.1806 18.1247 78.8615 18.4847 78.575 18.8905C78.3016 19.2963 78.0541 19.7022 77.8327 20.108C77.6114 20.5007 77.4225 20.8803 77.2662 21.2469C77.123 21.6135 77.0123 21.9211 76.9342 22.1698C77.3899 21.9342 77.8588 21.6658 78.3406 21.3647C78.8354 21.0636 79.2978 20.7757 79.7276 20.5007C80.1573 20.2258 80.5284 19.9771 80.841 19.7545C81.1666 19.532 81.3945 19.3815 81.5247 19.3029C82.1108 18.9363 82.5144 18.596 82.7359 18.2818C82.9572 17.9545 83.0679 17.673 83.0679 17.4374C83.0679 17.241 83.0028 17.0839 82.8726 16.9661C82.7554 16.8483 82.6187 16.7763 82.4623 16.7501ZM83.1656 14.0402C84.2465 14.0402 85.054 14.3021 85.5878 14.8257C86.1218 15.3493 86.3888 16.0759 86.3888 17.0054C86.3888 17.5552 86.2456 18.1313 85.959 18.7334C85.6726 19.3356 85.1777 19.9509 84.4744 20.5793C83.7711 21.1945 82.827 21.8294 81.6419 22.484C80.4698 23.1255 78.9983 23.7735 77.2272 24.4281C77.2923 24.8077 77.4941 25.1088 77.8327 25.3313C78.1713 25.5409 78.6206 25.6455 79.1806 25.6455C79.7796 25.6455 80.4178 25.5605 81.0949 25.3902C81.7851 25.207 82.4623 24.9779 83.1265 24.703C83.8038 24.4281 84.4614 24.1335 85.0995 23.8193C85.7377 23.492 86.3107 23.1844 86.8185 22.8963C87.3394 22.6084 87.7692 22.3597 88.1078 22.1502C88.4594 21.9407 88.6938 21.8098 88.8111 21.7574C88.9283 21.6789 89.0324 21.6331 89.1236 21.62C89.2278 21.6069 89.3189 21.6004 89.3971 21.6004C89.5534 21.6004 89.6836 21.6396 89.7878 21.7182C89.8919 21.7837 89.9767 21.8687 90.0418 21.9735C90.1199 22.0651 90.172 22.1698 90.198 22.2877C90.224 22.3923 90.2371 22.484 90.2371 22.5626C90.2371 22.6804 90.224 22.8244 90.198 22.9946C90.172 23.1517 90.0743 23.3349 89.9049 23.5444C89.8398 23.6099 89.6185 23.7866 89.2408 24.0746C88.8762 24.3626 88.4008 24.703 87.8148 25.0957C87.2288 25.4885 86.5451 25.9073 85.7637 26.3524C84.9953 26.7844 84.1749 27.1838 83.3024 27.5503C82.4428 27.9168 81.5443 28.2179 80.6066 28.4536C79.669 28.7023 78.7443 28.8267 77.8327 28.8267C77.0514 28.8267 76.3546 28.6761 75.7425 28.3751C75.1435 28.074 74.6291 27.6681 74.1993 27.1575C73.7825 26.647 73.4635 26.0579 73.2421 25.3902C73.0207 24.7226 72.9101 24.0222 72.9101 23.2892C72.9101 22.7262 73.0207 22.1109 73.2421 21.4432C73.4635 20.7625 73.7825 20.0818 74.1993 19.4011C74.6161 18.7203 75.1239 18.0592 75.7229 17.4177C76.335 16.7632 77.0188 16.1872 77.7741 15.6897C78.5294 15.1923 79.3564 14.7929 80.255 14.4919C81.1666 14.1908 82.1368 14.0402 83.1656 14.0402ZM93.4212 18.2818C93.9161 17.7712 94.437 17.2672 94.984 16.7697C95.5439 16.2592 96.1234 15.8076 96.7224 15.4148C97.3342 15.009 97.9723 14.6817 98.6365 14.433C99.3006 14.1843 99.9977 14.0599 100.727 14.0599C101.157 14.0599 101.6 14.1123 102.055 14.2169C102.511 14.3086 102.921 14.4657 103.286 14.6883C103.663 14.9108 103.969 15.1988 104.204 15.5523C104.438 15.9057 104.555 16.3377 104.555 16.8483C104.555 17.6862 104.36 18.4454 103.969 19.1261C103.592 19.8069 103.097 20.4156 102.485 20.9523C101.873 21.4891 101.189 21.967 100.434 22.3858C99.6916 22.7917 98.9625 23.1386 98.2464 23.4266C98.0634 23.5051 97.8943 23.6099 97.7383 23.7408C97.5823 23.8586 97.4453 23.9895 97.3282 24.1335C97.2242 24.2644 97.1392 24.4018 97.0741 24.5459C97.009 24.6768 96.9764 24.7881 96.9764 24.8797C96.9764 25.0368 97.022 25.1743 97.1132 25.2921C97.2172 25.3968 97.3932 25.4492 97.6403 25.4492C98.1224 25.4492 98.6694 25.3509 99.2815 25.1546C99.8936 24.9582 100.604 24.6637 101.411 24.2709C102.231 23.8652 103.162 23.3546 104.204 22.7393C105.259 22.124 106.47 21.3975 107.838 20.5596C108.059 20.4287 108.267 20.3632 108.463 20.3632C108.71 20.3632 108.905 20.4549 109.049 20.6382C109.192 20.8214 109.263 21.0636 109.263 21.3647C109.263 21.7313 109.127 22.1502 108.853 22.6215C108.593 23.0796 108.15 23.5182 107.525 23.9371C106.653 24.4739 105.761 25.0302 104.848 25.6063C103.937 26.1823 102.999 26.7124 102.036 27.1968C101.072 27.6681 100.083 28.0543 99.0665 28.3554C98.0504 28.6696 97.009 28.8267 95.9411 28.8267C94.0918 28.8267 93.1673 28.0216 93.1673 26.4113C93.1673 25.5605 93.343 24.8142 93.6946 24.1728C94.0593 23.5182 94.4956 22.9487 95.0035 22.4644C95.5243 21.98 96.0648 21.5676 96.6248 21.2273C97.1848 20.8738 97.6663 20.5596 98.0704 20.2847C98.3834 20.1014 98.6755 19.9051 98.9495 19.6956C99.2225 19.4861 99.4636 19.2702 99.6726 19.0476C99.8936 18.8251 100.063 18.6025 100.18 18.38C100.311 18.1443 100.376 17.9087 100.376 17.673C100.376 17.2934 100.2 17.1035 99.8476 17.1035C98.5454 17.1035 96.7224 18.3668 94.3784 20.8935C93.8444 21.4695 93.3561 22.0324 92.9133 22.5822C92.4705 23.1189 92.0538 23.6491 91.6631 24.1728C91.2854 24.6964 90.9208 25.207 90.5691 25.7044C90.2175 26.1888 89.8724 26.6535 89.5338 27.0986C88.518 28.2507 87.613 28.8267 86.8185 28.8267C86.4409 28.8267 86.1674 28.7547 85.9981 28.6106C85.8288 28.4797 85.7442 28.2245 85.7442 27.8448C85.7442 27.7924 85.7442 27.7402 85.7442 27.6878C85.7442 27.6354 85.7507 27.5765 85.7637 27.511C85.7898 27.2492 85.9004 26.8499 86.0957 26.3132C86.2912 25.7764 86.532 25.1677 86.8185 24.487C87.1181 23.8062 87.4436 23.0796 87.7953 22.3073C88.1599 21.5349 88.518 20.7822 88.8697 20.0491C89.2212 19.3029 89.5534 18.609 89.8659 17.9676C90.1785 17.3131 90.4389 16.7698 90.6473 16.3377L96.8202 3.67206C96.8983 3.50188 97.0155 3.33824 97.1718 3.18115C97.3412 3.02405 97.5233 2.8866 97.7183 2.76877C97.9273 2.63786 98.1424 2.53968 98.3634 2.47422C98.5974 2.39568 98.8325 2.35641 99.0665 2.35641C99.6526 2.35641 100.057 2.46768 100.278 2.69023C100.512 2.91278 100.63 3.18115 100.63 3.49533C100.63 3.78334 100.558 4.08444 100.415 4.39862C100.285 4.71281 100.128 5.00736 99.9457 5.28227C99.3986 6.26411 98.8515 7.3114 98.3044 8.42414C97.7713 9.52384 97.2372 10.643 96.7029 11.7821C96.169 12.921 95.6286 14.0468 95.0816 15.1595C94.5346 16.2592 93.9812 17.2999 93.4212 18.2818Z"/>
</mask>
<path d="M15.6548 10.643C15.4333 11.0489 15.1403 11.5856 14.7757 12.2533C14.4241 12.921 14.0138 13.6672 13.545 14.4919C13.0892 15.3166 12.5878 16.2068 12.0409 17.1625C11.5069 18.105 10.9469 19.0541 10.3609 20.0098C9.78791 20.9655 9.19531 21.908 8.58321 22.8374C7.98421 23.7539 7.39812 24.6048 6.82516 25.3902C8.23166 25.2463 9.58597 24.8862 10.8883 24.3102C12.1906 23.7342 13.4083 23.0207 14.5413 22.1698C15.6873 21.3058 16.7291 20.3436 17.6668 19.2832C18.6174 18.2098 19.4249 17.1035 20.089 15.9646C20.7662 14.8126 21.2872 13.6606 21.6518 12.5086C22.0295 11.3566 22.2183 10.2699 22.2183 9.24886C22.2183 8.38487 22.1076 7.58631 21.8862 6.85321C21.6778 6.12011 21.3523 5.48519 20.9095 4.94845C20.4797 4.41172 19.9262 3.9928 19.249 3.6917C18.5718 3.3906 17.7775 3.24005 16.8658 3.24005C16.0193 3.24005 15.1664 3.32515 14.3068 3.49533C13.4603 3.65243 12.6464 3.86843 11.865 4.14334C11.0836 4.41826 10.3609 4.74554 9.69669 5.12518C9.04559 5.49174 8.4856 5.89101 8.01672 6.32302C7.49584 6.89903 7.03352 7.47504 6.62982 8.05105C6.23912 8.62706 5.84844 9.14416 5.45775 9.60236C5.08009 10.0605 4.66986 10.4336 4.22709 10.7217C3.78431 11.0096 3.26338 11.1537 2.66434 11.1537C1.54436 11.1537 0.984375 10.6562 0.984375 9.66128C0.984375 9.03288 1.18623 8.35869 1.58994 7.63867C1.99365 6.90558 2.55364 6.18556 3.26989 5.47863C3.99918 4.75863 4.8587 4.07135 5.84844 3.41678C6.8512 2.74914 7.95161 2.16658 9.1498 1.66912C10.3479 1.15857 11.6241 0.752736 12.9785 0.451639C14.3328 0.150548 15.7264 0 17.1589 0C18.8258 0 20.2779 0.24873 21.515 0.746191C22.7522 1.24366 23.7745 1.93094 24.5819 2.80805C25.4024 3.67206 26.0079 4.69318 26.3986 5.87137C26.8024 7.04957 27.0042 8.31942 27.0042 9.68088C27.0042 11.0424 26.7697 12.4694 26.301 13.9617C25.8452 15.4541 25.168 16.9203 24.2693 18.3603C23.3838 19.8003 22.2834 21.1684 20.9681 22.4644C19.6658 23.7604 18.1617 24.8993 16.4556 25.8812C14.7626 26.8631 12.8808 27.6419 10.8102 28.2179C8.75254 28.7939 6.52563 29.082 4.12941 29.082C3.6085 29.082 3.19827 28.9118 2.89874 28.5714C2.59922 28.2442 2.44945 27.8383 2.44945 27.3539C2.44945 26.9742 2.51457 26.6077 2.64479 26.2543C2.77502 25.9008 2.94432 25.5735 3.1527 25.2724L11.1813 9.22925C11.559 8.64015 11.9302 8.16887 12.2948 7.8154C12.6725 7.46195 13.0175 7.18703 13.3301 6.99066C13.6557 6.7943 13.9422 6.66993 14.1896 6.61757C14.4371 6.55211 14.6259 6.51938 14.7561 6.51938C15.3422 6.51938 15.7589 6.68957 16.0063 7.02994C16.2537 7.37031 16.3775 7.77613 16.3775 8.24741C16.3775 8.62706 16.3124 9.02634 16.1821 9.44522C16.0519 9.86417 15.8761 10.2634 15.6548 10.643ZM31.5948 11.35C31.5948 11.0489 31.6468 10.7413 31.751 10.4271C31.8683 10.0998 32.0376 9.80525 32.2589 9.54344C32.4804 9.28164 32.7538 9.06561 33.0794 8.89542C33.418 8.72524 33.8152 8.64015 34.271 8.64015C35.0263 8.64015 35.5538 8.7907 35.8533 9.0918C36.1528 9.37976 36.3026 9.74633 36.3026 10.1914C36.3026 10.4402 36.2505 10.7151 36.1463 11.0162C36.0551 11.3173 35.9119 11.5988 35.7165 11.8606C35.5212 12.1093 35.2672 12.3187 34.9547 12.489C34.6421 12.6592 34.271 12.7442 33.8412 12.7442C33.0339 12.7442 32.4674 12.6199 32.1417 12.3711C31.8162 12.1093 31.6338 11.7689 31.5948 11.35ZM29.446 15.7683C29.6674 15.4017 29.9214 15.1399 30.2078 14.9829C30.4943 14.8257 30.7874 14.7472 31.0868 14.7472C31.5817 14.7472 32.005 14.9108 32.3566 15.2381C32.7213 15.5523 32.9036 15.9581 32.9036 16.4556C32.8905 16.5734 32.871 16.6912 32.845 16.8091C32.8319 16.9268 32.7929 17.0446 32.7278 17.1625C32.5455 17.5029 32.3957 17.7908 32.2785 18.0265C32.1613 18.2622 32.0506 18.4847 31.9464 18.6942C31.8553 18.8905 31.7641 19.0869 31.6729 19.2832C31.5817 19.4796 31.4711 19.7153 31.3408 19.9901C31.1846 20.3174 31.0087 20.6774 30.8134 21.0701C30.6181 21.4498 30.4292 21.8426 30.2469 22.2484C30.0776 22.6542 29.9279 23.0535 29.7976 23.4462C29.6804 23.8389 29.6218 24.1989 29.6218 24.5262C29.6218 24.8797 29.7064 25.1154 29.8757 25.2332C30.0581 25.3379 30.312 25.3902 30.6376 25.3902C31.0022 25.3902 31.3799 25.3117 31.7706 25.1546C32.1743 24.9975 32.578 24.7946 32.9818 24.5459C33.3854 24.2972 33.7827 24.0157 34.1733 23.7015C34.564 23.3742 34.9287 23.047 35.2672 22.7197C35.6189 22.3923 35.9379 22.0782 36.2245 21.7771C36.5239 21.476 36.7714 21.2077 36.9667 20.972C37.2272 20.7233 37.4877 20.5989 37.7481 20.5989C37.9826 20.5989 38.1714 20.7037 38.3146 20.9131C38.4709 21.1225 38.549 21.3909 38.549 21.7182C38.549 22.0192 38.4709 22.3401 38.3146 22.6804C38.1714 23.0207 37.9304 23.3415 37.5918 23.6426C36.9277 24.3233 36.2505 24.9779 35.5603 25.6063C34.8701 26.2215 34.1603 26.7714 33.431 27.2558C32.7147 27.727 31.992 28.1066 31.2627 28.3947C30.5335 28.6827 29.7976 28.8267 29.0553 28.8267C28.0004 28.8267 27.167 28.5584 26.5549 28.0216C25.9558 27.4717 25.6564 26.6208 25.6564 25.4688C25.6564 24.8666 25.741 24.2775 25.9103 23.7015C26.0795 23.1255 26.2815 22.5691 26.5158 22.0324C26.7502 21.4826 26.9977 20.9589 27.2581 20.4615C27.5186 19.9509 27.74 19.4665 27.9223 19.0084C27.9874 18.8382 28.0982 18.5764 28.2544 18.2229C28.4237 17.8694 28.5995 17.5094 28.7819 17.1429C28.9902 16.7108 29.2115 16.2527 29.446 15.7683ZM45.3274 14.0599C45.9004 14.0599 46.4018 14.1319 46.8316 14.2759C47.2614 14.4199 47.626 14.577 47.9256 14.7472C48.2641 14.9566 48.5637 15.1857 48.8241 15.4345C49.0064 15.3166 49.2018 15.2053 49.4102 15.1006C49.5924 15.009 49.7944 14.9305 50.0157 14.865C50.2371 14.7864 50.4585 14.7472 50.6799 14.7472C51.2529 14.7472 51.6957 14.865 52.0082 15.1006C52.3208 15.3363 52.4771 15.6178 52.4771 15.945C52.4771 16.1152 52.4315 16.2853 52.3403 16.4556L47.7692 25.1546L48.1404 24.8208C49.6771 23.9175 50.9403 23.2105 51.9301 22.7C52.9199 22.1764 53.7077 21.7902 54.2938 21.5415C54.8798 21.2927 55.2965 21.1422 55.544 21.0898C55.8044 21.0244 55.9672 20.9916 56.0324 20.9916C56.3318 20.9916 56.5598 21.1095 56.716 21.3451C56.8853 21.5676 56.9699 21.8491 56.9699 22.1895C56.9699 22.5691 56.8593 22.9553 56.6379 23.3481C56.4295 23.7408 56.104 24.0222 55.6612 24.1924C55.0751 24.4935 54.3914 24.8208 53.6101 25.1743C52.8287 25.5146 52.0147 25.8942 51.1683 26.3132C50.3217 26.732 49.4687 27.2034 48.6093 27.727C47.7627 28.2375 46.9683 28.8071 46.2261 29.4355L42.4364 36.3279C42.1238 37.0741 41.8373 37.6829 41.5768 38.1541C41.3294 38.6254 41.082 38.9985 40.8345 39.2734C40.5871 39.5483 40.3331 39.7381 40.0727 39.8429C39.8122 39.9476 39.5127 40 39.1741 40C38.6663 40 38.2625 39.8232 37.963 39.4697C37.6765 39.1164 37.5333 38.6909 37.5333 38.1934C37.5333 37.6698 37.657 37.061 37.9044 36.3672C38.1518 35.6734 38.4969 34.9206 38.9397 34.109C39.3955 33.3104 39.9425 32.466 40.5806 31.5759C41.2188 30.6987 41.9285 29.8019 42.7098 28.8856L45.1321 25.783C44.6372 26.2412 44.1488 26.6339 43.6671 26.9612C43.1852 27.2884 42.7229 27.5569 42.2801 27.7663C41.8373 27.9627 41.4206 28.1066 41.0299 28.1983C40.6522 28.2899 40.3201 28.3358 40.0337 28.3358C39.5127 28.3358 39.0309 28.2179 38.5881 27.9823C38.1453 27.7335 37.7611 27.3932 37.4356 26.9612C37.123 26.5292 36.8756 26.0186 36.6932 25.4296C36.5109 24.8404 36.4198 24.1989 36.4198 23.5051C36.4198 22.0651 36.6932 20.7625 37.2402 19.5974C37.8002 18.4323 38.5099 17.444 39.3695 16.6323C40.242 15.8076 41.1992 15.1727 42.241 14.7275C43.2959 14.2824 44.3247 14.0599 45.3274 14.0599ZM44.5851 17.516C43.9731 17.516 43.3805 17.673 42.8075 17.9872C42.2345 18.2883 41.7267 18.6942 41.2839 19.2047C40.841 19.7022 40.4895 20.2782 40.229 20.9327C39.9686 21.5873 39.8383 22.2614 39.8383 22.9553C39.8383 23.1648 39.8514 23.3938 39.8774 23.6426C39.9165 23.8782 39.9881 24.1008 40.0922 24.3102C40.2094 24.5197 40.3722 24.6964 40.5806 24.8404C40.802 24.9713 41.1016 25.0368 41.4792 25.0368C41.7527 25.0368 42.0717 24.919 42.4364 24.6833C42.814 24.4346 43.1982 24.127 43.5889 23.7604C43.9926 23.3808 44.3833 22.9684 44.7609 22.5233C45.1386 22.0651 45.4773 21.62 45.7767 21.188C46.0893 20.756 46.3367 20.3698 46.519 20.0295C46.7014 19.676 46.7926 19.4142 46.7926 19.2439C46.7926 18.956 46.7144 18.7073 46.5581 18.4977C46.4018 18.2752 46.2065 18.0919 45.9721 17.948C45.7507 17.8039 45.5098 17.6992 45.2493 17.6338C45.0019 17.5552 44.7806 17.516 44.5851 17.516ZM59.4118 11.35C59.4118 11.0489 59.4638 10.7413 59.568 10.4271C59.6853 10.0998 59.8546 9.80525 60.0759 9.54344C60.2974 9.28164 60.5708 9.06561 60.8964 8.89542C61.235 8.72524 61.6322 8.64015 62.0879 8.64015C62.8433 8.64015 63.3708 8.7907 63.6703 9.0918C63.9697 9.37976 64.1196 9.74633 64.1196 10.1914C64.1196 10.4402 64.0675 10.7151 63.9632 11.0162C63.8721 11.3173 63.7289 11.5988 63.5336 11.8606C63.3382 12.1093 63.0842 12.3187 62.7717 12.489C62.4591 12.6592 62.0879 12.7442 61.6583 12.7442C60.8508 12.7442 60.2844 12.6199 59.9587 12.3711C59.6331 12.1093 59.4508 11.7689 59.4118 11.35ZM57.263 15.7683C57.4844 15.4017 57.7383 15.1399 58.0248 14.9829C58.3113 14.8257 58.6044 14.7472 58.9038 14.7472C59.3987 14.7472 59.822 14.9108 60.1736 15.2381C60.5383 15.5523 60.7205 15.9581 60.7205 16.4556C60.7075 16.5734 60.688 16.6912 60.662 16.8091C60.6489 16.9268 60.6099 17.0446 60.5448 17.1625C60.3625 17.5029 60.2126 17.7908 60.0954 18.0265C59.9783 18.2622 59.8676 18.4847 59.7634 18.6942C59.6723 18.8905 59.581 19.0869 59.4899 19.2832C59.3987 19.4796 59.2881 19.7153 59.1579 19.9901C59.0015 20.3174 58.8257 20.6774 58.6304 21.0701C58.4351 21.4498 58.2462 21.8426 58.0639 22.2484C57.8946 22.6542 57.7448 23.0535 57.6146 23.4462C57.4974 23.8389 57.4388 24.1989 57.4388 24.5262C57.4388 24.8797 57.5234 25.1154 57.6927 25.2332C57.8751 25.3379 58.129 25.3902 58.4546 25.3902C58.8192 25.3902 59.1969 25.3117 59.5875 25.1546C59.9913 24.9975 60.395 24.7946 60.7987 24.5459C61.2024 24.2972 61.5997 24.0157 61.9903 23.7015C62.381 23.3742 62.7457 23.047 63.0842 22.7197C63.4359 22.3923 63.7549 22.0782 64.0415 21.7771C64.3409 21.476 64.5884 21.2077 64.7838 20.972C65.0442 20.7233 65.3047 20.5989 65.5651 20.5989C65.7995 20.5989 65.9884 20.7037 66.1316 20.9131C66.2879 21.1225 66.366 21.3909 66.366 21.7182C66.366 22.0192 66.2879 22.3401 66.1316 22.6804C65.9884 23.0207 65.7474 23.3415 65.4089 23.6426C64.7447 24.3233 64.0675 24.9779 63.3773 25.6063C62.687 26.2215 61.9773 26.7714 61.248 27.2558C60.5317 27.727 59.809 28.1066 59.0797 28.3947C58.3504 28.6827 57.6146 28.8267 56.8723 28.8267C55.8174 28.8267 54.984 28.5584 54.3719 28.0216C53.7728 27.4717 53.4734 26.6208 53.4734 25.4688C53.4734 24.8666 53.558 24.2775 53.7273 23.7015C53.8965 23.1255 54.0985 22.5691 54.3328 22.0324C54.5672 21.4826 54.8147 20.9589 55.0751 20.4615C55.3356 19.9509 55.557 19.4665 55.7393 19.0084C55.8044 18.8382 55.9151 18.5764 56.0714 18.2229C56.2407 17.8694 56.4165 17.5094 56.5989 17.1429C56.8072 16.7108 57.0285 16.2527 57.263 15.7683ZM69.9017 17.4177C69.4199 18.3603 68.9641 19.2832 68.5344 20.1865C68.1046 21.0767 67.7009 21.9015 67.3232 22.6608C67.167 22.975 67.0106 23.3415 66.8544 23.7604C66.7111 24.1663 66.6395 24.5262 66.6395 24.8404C66.6395 25.0237 66.6786 25.1677 66.7567 25.2724C66.8479 25.3772 66.9911 25.4296 67.1865 25.4296C67.4599 25.4296 67.8051 25.3509 68.2217 25.1939C68.6385 25.0237 69.0878 24.8077 69.5697 24.5459C70.0515 24.2709 70.5594 23.9633 71.0933 23.623C71.6273 23.2695 72.1482 22.9095 72.6561 22.543C73.177 22.1633 73.6719 21.7902 74.1407 21.4236C74.6096 21.044 75.0262 20.697 75.3909 20.3829C75.5993 20.2389 75.7947 20.1669 75.977 20.1669C76.1983 20.1669 76.3807 20.2651 76.5239 20.4615C76.6672 20.6578 76.7388 20.9066 76.7388 21.2077C76.7388 21.5087 76.6672 21.8164 76.5239 22.1305C76.3807 22.4447 76.1202 22.7524 75.7425 23.0535C74.896 23.8258 74.0366 24.559 73.164 25.2528C72.3045 25.9466 71.445 26.5619 70.5854 27.0986C69.739 27.6223 68.8989 28.0412 68.0655 28.3554C67.2321 28.6696 66.4247 28.8267 65.6432 28.8267C65.1223 28.8267 64.6861 28.7547 64.3344 28.6106C63.9829 28.4797 63.6963 28.2964 63.475 28.0609C63.2665 27.8121 63.1168 27.5306 63.0256 27.2164C62.9345 26.8892 62.8889 26.5422 62.8889 26.1758C62.8889 25.5211 62.9996 24.8404 63.2209 24.1335C63.4424 23.4266 63.6898 22.7917 63.9632 22.2288C64.354 21.4171 64.7382 20.612 65.1158 19.8134C65.5065 19.0149 65.8842 18.249 66.2488 17.516H65.4089C64.6796 17.516 64.1782 17.3981 63.9046 17.1625C63.6312 16.9268 63.4945 16.6585 63.4945 16.3573C63.4945 16.2264 63.5336 16.0694 63.6117 15.8861C63.7028 15.6898 63.8265 15.513 63.9828 15.3559C64.1521 15.1857 64.354 15.0417 64.5883 14.9239C64.8228 14.8061 65.0897 14.7472 65.3893 14.7472H67.499L71.6208 6.51938C71.8812 6.02192 72.2003 5.66846 72.5779 5.459C72.9686 5.23645 73.3724 5.12518 73.7891 5.12518C74.1798 5.12518 74.538 5.22991 74.8635 5.43936C75.1891 5.64883 75.3519 5.99574 75.3519 6.48011C75.3519 6.72884 75.2933 6.98412 75.1761 7.24595C75.0718 7.49467 74.9286 7.78922 74.7463 8.12959C74.6291 8.35215 74.4858 8.62051 74.3165 8.93469C74.1472 9.23579 73.9649 9.56305 73.7695 9.91655C73.5872 10.2569 73.3919 10.6169 73.1835 10.9965C72.9882 11.3762 72.7929 11.7428 72.5974 12.0963C72.1547 12.9341 71.6859 13.8177 71.191 14.7472H77.5592C77.8718 14.7472 78.1582 14.7668 78.4188 14.8061C78.6792 14.8322 78.9006 14.8977 79.0829 15.0025C79.2782 15.0941 79.428 15.225 79.5322 15.3952C79.6364 15.5654 79.6885 15.7944 79.6885 16.0825C79.6885 16.2264 79.6625 16.3705 79.6104 16.5145C79.5713 16.6585 79.4867 16.7894 79.3564 16.9072C79.2392 17.025 79.0699 17.1232 78.8484 17.2018C78.6401 17.2803 78.3667 17.3327 78.028 17.3588L69.9017 17.4177ZM82.4623 16.7501C82.3972 16.737 82.3386 16.7304 82.2866 16.7304C82.2345 16.7304 82.1759 16.7304 82.1108 16.7304C81.6159 16.7304 81.1535 16.8287 80.7238 17.025C80.2941 17.2214 79.8968 17.4832 79.5322 17.8104C79.1806 18.1247 78.8615 18.4847 78.575 18.8905C78.3016 19.2963 78.0541 19.7022 77.8327 20.108C77.6114 20.5007 77.4225 20.8803 77.2662 21.2469C77.123 21.6135 77.0123 21.9211 76.9342 22.1698C77.3899 21.9342 77.8588 21.6658 78.3406 21.3647C78.8354 21.0636 79.2978 20.7757 79.7276 20.5007C80.1573 20.2258 80.5284 19.9771 80.841 19.7545C81.1666 19.532 81.3945 19.3815 81.5247 19.3029C82.1108 18.9363 82.5144 18.596 82.7359 18.2818C82.9572 17.9545 83.0679 17.673 83.0679 17.4374C83.0679 17.241 83.0028 17.0839 82.8726 16.9661C82.7554 16.8483 82.6187 16.7763 82.4623 16.7501ZM83.1656 14.0402C84.2465 14.0402 85.054 14.3021 85.5878 14.8257C86.1218 15.3493 86.3888 16.0759 86.3888 17.0054C86.3888 17.5552 86.2456 18.1313 85.959 18.7334C85.6726 19.3356 85.1777 19.9509 84.4744 20.5793C83.7711 21.1945 82.827 21.8294 81.6419 22.484C80.4698 23.1255 78.9983 23.7735 77.2272 24.4281C77.2923 24.8077 77.4941 25.1088 77.8327 25.3313C78.1713 25.5409 78.6206 25.6455 79.1806 25.6455C79.7796 25.6455 80.4178 25.5605 81.0949 25.3902C81.7851 25.207 82.4623 24.9779 83.1265 24.703C83.8038 24.4281 84.4614 24.1335 85.0995 23.8193C85.7377 23.492 86.3107 23.1844 86.8185 22.8963C87.3394 22.6084 87.7692 22.3597 88.1078 22.1502C88.4594 21.9407 88.6938 21.8098 88.8111 21.7574C88.9283 21.6789 89.0324 21.6331 89.1236 21.62C89.2278 21.6069 89.3189 21.6004 89.3971 21.6004C89.5534 21.6004 89.6836 21.6396 89.7878 21.7182C89.8919 21.7837 89.9767 21.8687 90.0418 21.9735C90.1199 22.0651 90.172 22.1698 90.198 22.2877C90.224 22.3923 90.2371 22.484 90.2371 22.5626C90.2371 22.6804 90.224 22.8244 90.198 22.9946C90.172 23.1517 90.0743 23.3349 89.9049 23.5444C89.8398 23.6099 89.6185 23.7866 89.2408 24.0746C88.8762 24.3626 88.4008 24.703 87.8148 25.0957C87.2288 25.4885 86.5451 25.9073 85.7637 26.3524C84.9953 26.7844 84.1749 27.1838 83.3024 27.5503C82.4428 27.9168 81.5443 28.2179 80.6066 28.4536C79.669 28.7023 78.7443 28.8267 77.8327 28.8267C77.0514 28.8267 76.3546 28.6761 75.7425 28.3751C75.1435 28.074 74.6291 27.6681 74.1993 27.1575C73.7825 26.647 73.4635 26.0579 73.2421 25.3902C73.0207 24.7226 72.9101 24.0222 72.9101 23.2892C72.9101 22.7262 73.0207 22.1109 73.2421 21.4432C73.4635 20.7625 73.7825 20.0818 74.1993 19.4011C74.6161 18.7203 75.1239 18.0592 75.7229 17.4177C76.335 16.7632 77.0188 16.1872 77.7741 15.6897C78.5294 15.1923 79.3564 14.7929 80.255 14.4919C81.1666 14.1908 82.1368 14.0402 83.1656 14.0402ZM93.4212 18.2818C93.9161 17.7712 94.437 17.2672 94.984 16.7697C95.5439 16.2592 96.1234 15.8076 96.7224 15.4148C97.3342 15.009 97.9723 14.6817 98.6365 14.433C99.3006 14.1843 99.9977 14.0599 100.727 14.0599C101.157 14.0599 101.6 14.1123 102.055 14.2169C102.511 14.3086 102.921 14.4657 103.286 14.6883C103.663 14.9108 103.969 15.1988 104.204 15.5523C104.438 15.9057 104.555 16.3377 104.555 16.8483C104.555 17.6862 104.36 18.4454 103.969 19.1261C103.592 19.8069 103.097 20.4156 102.485 20.9523C101.873 21.4891 101.189 21.967 100.434 22.3858C99.6916 22.7917 98.9625 23.1386 98.2464 23.4266C98.0634 23.5051 97.8943 23.6099 97.7383 23.7408C97.5823 23.8586 97.4453 23.9895 97.3282 24.1335C97.2242 24.2644 97.1392 24.4018 97.0741 24.5459C97.009 24.6768 96.9764 24.7881 96.9764 24.8797C96.9764 25.0368 97.022 25.1743 97.1132 25.2921C97.2172 25.3968 97.3932 25.4492 97.6403 25.4492C98.1224 25.4492 98.6694 25.3509 99.2815 25.1546C99.8936 24.9582 100.604 24.6637 101.411 24.2709C102.231 23.8652 103.162 23.3546 104.204 22.7393C105.259 22.124 106.47 21.3975 107.838 20.5596C108.059 20.4287 108.267 20.3632 108.463 20.3632C108.71 20.3632 108.905 20.4549 109.049 20.6382C109.192 20.8214 109.263 21.0636 109.263 21.3647C109.263 21.7313 109.127 22.1502 108.853 22.6215C108.593 23.0796 108.15 23.5182 107.525 23.9371C106.653 24.4739 105.761 25.0302 104.848 25.6063C103.937 26.1823 102.999 26.7124 102.036 27.1968C101.072 27.6681 100.083 28.0543 99.0665 28.3554C98.0504 28.6696 97.009 28.8267 95.9411 28.8267C94.0918 28.8267 93.1673 28.0216 93.1673 26.4113C93.1673 25.5605 93.343 24.8142 93.6946 24.1728C94.0593 23.5182 94.4956 22.9487 95.0035 22.4644C95.5243 21.98 96.0648 21.5676 96.6248 21.2273C97.1848 20.8738 97.6663 20.5596 98.0704 20.2847C98.3834 20.1014 98.6755 19.9051 98.9495 19.6956C99.2225 19.4861 99.4636 19.2702 99.6726 19.0476C99.8936 18.8251 100.063 18.6025 100.18 18.38C100.311 18.1443 100.376 17.9087 100.376 17.673C100.376 17.2934 100.2 17.1035 99.8476 17.1035C98.5454 17.1035 96.7224 18.3668 94.3784 20.8935C93.8444 21.4695 93.3561 22.0324 92.9133 22.5822C92.4705 23.1189 92.0538 23.6491 91.6631 24.1728C91.2854 24.6964 90.9208 25.207 90.5691 25.7044C90.2175 26.1888 89.8724 26.6535 89.5338 27.0986C88.518 28.2507 87.613 28.8267 86.8185 28.8267C86.4409 28.8267 86.1674 28.7547 85.9981 28.6106C85.8288 28.4797 85.7442 28.2245 85.7442 27.8448C85.7442 27.7924 85.7442 27.7402 85.7442 27.6878C85.7442 27.6354 85.7507 27.5765 85.7637 27.511C85.7898 27.2492 85.9004 26.8499 86.0957 26.3132C86.2912 25.7764 86.532 25.1677 86.8185 24.487C87.1181 23.8062 87.4436 23.0796 87.7953 22.3073C88.1599 21.5349 88.518 20.7822 88.8697 20.0491C89.2212 19.3029 89.5534 18.609 89.8659 17.9676C90.1785 17.3131 90.4389 16.7698 90.6473 16.3377L96.8202 3.67206C96.8983 3.50188 97.0155 3.33824 97.1718 3.18115C97.3412 3.02405 97.5233 2.8866 97.7183 2.76877C97.9273 2.63786 98.1424 2.53968 98.3634 2.47422C98.5974 2.39568 98.8325 2.35641 99.0665 2.35641C99.6526 2.35641 100.057 2.46768 100.278 2.69023C100.512 2.91278 100.63 3.18115 100.63 3.49533C100.63 3.78334 100.558 4.08444 100.415 4.39862C100.285 4.71281 100.128 5.00736 99.9457 5.28227C99.3986 6.26411 98.8515 7.3114 98.3044 8.42414C97.7713 9.52384 97.2372 10.643 96.7029 11.7821C96.169 12.921 95.6286 14.0468 95.0816 15.1595C94.5346 16.2592 93.9812 17.2999 93.4212 18.2818Z" fill="white" stroke="white" stroke-width="2" mask="url(#path-1-inside-1_4141_625)"/>
</svg>
