<svg width="92" height="36" viewBox="0 0 92 36" fill="none" xmlns="http://www.w3.org/2000/svg">
<mask id="path-1-inside-1_4141_622" fill="white">
<path d="M8.41993 28.2783C6.59564 28.2783 5.05939 27.9887 3.81119 27.4096C2.56298 26.8064 1.4468 25.9619 0.462646 24.876L3.59515 21.6909C4.26726 22.4389 5.01138 23.0301 5.82751 23.4644C6.64364 23.8988 7.56779 24.1159 8.59996 24.1159C9.65613 24.1159 10.3882 23.9591 10.7963 23.6454C11.2044 23.3076 11.4084 22.8612 11.4084 22.3062C11.4084 21.4134 10.7723 20.8826 9.5001 20.7137L7.44777 20.4603C3.19909 19.9295 1.07475 17.975 1.07475 14.5968C1.07475 13.6799 1.24277 12.8474 1.57883 12.0994C1.93888 11.3273 2.43096 10.6758 3.05506 10.1449C3.70317 9.58993 4.47129 9.16766 5.35944 8.87811C6.27158 8.56442 7.29175 8.40758 8.41993 8.40758C9.40409 8.40758 10.2682 8.47997 11.0123 8.62475C11.7805 8.74539 12.4526 8.93843 13.0287 9.20386C13.6288 9.44515 14.1688 9.75884 14.6489 10.1449C15.153 10.5069 15.6451 10.9171 16.1252 11.3755L13.0647 14.5244C12.4646 13.9212 11.7805 13.4507 11.0123 13.1128C10.2682 12.7509 9.5001 12.5699 8.70798 12.5699C7.79583 12.5699 7.14773 12.7147 6.76366 13.0043C6.3796 13.2938 6.18757 13.6799 6.18757 14.1625C6.18757 14.6692 6.31959 15.0673 6.58363 15.3569C6.87168 15.6223 7.39977 15.8154 8.16789 15.936L10.2922 16.2256C14.4449 16.7805 16.5212 18.6868 16.5212 21.9443C16.5212 22.8612 16.3292 23.7057 15.9451 24.4779C15.5611 25.25 15.009 25.9257 14.2889 26.5048C13.5928 27.0597 12.7406 27.4941 11.7325 27.8078C10.7483 28.1214 9.64413 28.2783 8.41993 28.2783ZM25.4981 27.844C23.6498 27.844 22.2456 27.3734 21.2854 26.4324C20.3492 25.4913 19.8812 24.1159 19.8812 22.3062V13.0043H17.2167V8.84191H18.549C19.2691 8.84191 19.7612 8.67301 20.0252 8.33519C20.2892 7.97325 20.4213 7.46653 20.4213 6.81503V3.70231H25.21V8.84191H28.9546V13.0043H25.21V23.6816H28.6666V27.844H25.4981ZM31.6563 27.844V8.84191H36.9851V12.9681H37.1652C37.2612 12.4372 37.4292 11.9305 37.6692 11.4479C37.9093 10.9412 38.2213 10.4948 38.6054 10.1087C39.0135 9.72264 39.4935 9.42102 40.0456 9.20386C40.5977 8.96256 41.2458 8.84191 41.9899 8.84191H42.9261V13.8367H41.5939C40.0336 13.8367 38.8694 14.0418 38.1013 14.452C37.3572 14.8622 36.9851 15.6223 36.9851 16.7323V27.844H31.6563ZM47.8776 6.81503C46.7974 6.81503 46.0053 6.57373 45.5012 6.09114C45.0211 5.58442 44.7811 4.94499 44.7811 4.17284V3.37656C44.7811 2.60442 45.0211 1.97705 45.5012 1.49446C46.0053 0.987735 46.7974 0.734375 47.8776 0.734375C48.9578 0.734375 49.7379 0.987735 50.218 1.49446C50.722 1.97705 50.9741 2.60442 50.9741 3.37656V4.17284C50.9741 4.94499 50.722 5.58442 50.218 6.09114C49.7379 6.57373 48.9578 6.81503 47.8776 6.81503ZM45.2132 8.84191H50.542V27.844H45.2132V8.84191ZM54.5155 8.84191H59.8443V12.027H60.0244C60.2884 10.9653 60.8885 10.0967 61.8246 9.42102C62.7848 8.74539 63.877 8.40758 65.1012 8.40758C67.5016 8.40758 69.3139 9.25212 70.5381 10.9412C71.7623 12.6303 72.3744 15.0915 72.3744 18.3248C72.3744 21.5582 71.7623 24.0315 70.5381 25.7447C69.3139 27.4338 67.5016 28.2783 65.1012 28.2783C64.4771 28.2783 63.889 28.1818 63.3369 27.9887C62.7848 27.8198 62.2807 27.5785 61.8246 27.2648C61.3926 26.927 61.0205 26.541 60.7085 26.1066C60.3964 25.6482 60.1684 25.1656 60.0244 24.6589H59.8443V35.0828H54.5155V8.84191ZM63.3369 23.935C64.3451 23.935 65.1732 23.5851 65.8213 22.8853C66.4934 22.1614 66.8295 21.1963 66.8295 19.9898V16.6961C66.8295 15.4896 66.4934 14.5365 65.8213 13.8367C65.1732 13.1128 64.3451 12.7509 63.3369 12.7509C62.3287 12.7509 61.4886 13.0043 60.8165 13.511C60.1684 13.9936 59.8443 14.6692 59.8443 15.5379V21.148C59.8443 22.0167 60.1684 22.7044 60.8165 23.2111C61.4886 23.6937 62.3287 23.935 63.3369 23.935ZM83.3064 28.2783C81.8662 28.2783 80.582 28.0491 79.4538 27.5906C78.3256 27.108 77.3655 26.4444 76.5733 25.5999C75.8052 24.7312 75.2171 23.6816 74.809 22.451C74.425 21.2204 74.233 19.845 74.233 18.3248C74.233 16.8288 74.425 15.4775 74.809 14.2711C75.1931 13.0405 75.7572 11.9908 76.5013 11.1222C77.2694 10.2535 78.2056 9.58993 79.3098 9.13147C80.4139 8.64888 81.6742 8.40758 83.0904 8.40758C84.6506 8.40758 85.9828 8.67301 87.087 9.20386C88.2152 9.73471 89.1274 10.4465 89.8235 11.3393C90.5436 12.2321 91.0597 13.2697 91.3717 14.452C91.7078 15.6103 91.8758 16.8288 91.8758 18.1077V19.7002H79.7418V19.9898C79.7418 21.2445 80.0779 22.2459 80.75 22.9939C81.4221 23.7178 82.4783 24.0797 83.9185 24.0797C85.0227 24.0797 85.9228 23.8626 86.619 23.4282C87.3151 22.9698 87.9632 22.4269 88.5633 21.7995L91.2277 25.1294C90.3876 26.1187 89.2834 26.8908 87.9152 27.4458C86.5709 28.0008 85.0347 28.2783 83.3064 28.2783ZM83.1984 12.3528C82.1182 12.3528 81.2661 12.7147 80.642 13.4386C80.0419 14.1384 79.7418 15.0794 79.7418 16.2618V16.5513H86.3669V16.2256C86.3669 15.0673 86.1029 14.1384 85.5748 13.4386C85.0707 12.7147 84.2786 12.3528 83.1984 12.3528Z"/>
</mask>
<path d="M8.41993 28.2783C6.59564 28.2783 5.05939 27.9887 3.81119 27.4096C2.56298 26.8064 1.4468 25.9619 0.462646 24.876L3.59515 21.6909C4.26726 22.4389 5.01138 23.0301 5.82751 23.4644C6.64364 23.8988 7.56779 24.1159 8.59996 24.1159C9.65613 24.1159 10.3882 23.9591 10.7963 23.6454C11.2044 23.3076 11.4084 22.8612 11.4084 22.3062C11.4084 21.4134 10.7723 20.8826 9.5001 20.7137L7.44777 20.4603C3.19909 19.9295 1.07475 17.975 1.07475 14.5968C1.07475 13.6799 1.24277 12.8474 1.57883 12.0994C1.93888 11.3273 2.43096 10.6758 3.05506 10.1449C3.70317 9.58993 4.47129 9.16766 5.35944 8.87811C6.27158 8.56442 7.29175 8.40758 8.41993 8.40758C9.40409 8.40758 10.2682 8.47997 11.0123 8.62475C11.7805 8.74539 12.4526 8.93843 13.0287 9.20386C13.6288 9.44515 14.1688 9.75884 14.6489 10.1449C15.153 10.5069 15.6451 10.9171 16.1252 11.3755L13.0647 14.5244C12.4646 13.9212 11.7805 13.4507 11.0123 13.1128C10.2682 12.7509 9.5001 12.5699 8.70798 12.5699C7.79583 12.5699 7.14773 12.7147 6.76366 13.0043C6.3796 13.2938 6.18757 13.6799 6.18757 14.1625C6.18757 14.6692 6.31959 15.0673 6.58363 15.3569C6.87168 15.6223 7.39977 15.8154 8.16789 15.936L10.2922 16.2256C14.4449 16.7805 16.5212 18.6868 16.5212 21.9443C16.5212 22.8612 16.3292 23.7057 15.9451 24.4779C15.5611 25.25 15.009 25.9257 14.2889 26.5048C13.5928 27.0597 12.7406 27.4941 11.7325 27.8078C10.7483 28.1214 9.64413 28.2783 8.41993 28.2783ZM25.4981 27.844C23.6498 27.844 22.2456 27.3734 21.2854 26.4324C20.3492 25.4913 19.8812 24.1159 19.8812 22.3062V13.0043H17.2167V8.84191H18.549C19.2691 8.84191 19.7612 8.67301 20.0252 8.33519C20.2892 7.97325 20.4213 7.46653 20.4213 6.81503V3.70231H25.21V8.84191H28.9546V13.0043H25.21V23.6816H28.6666V27.844H25.4981ZM31.6563 27.844V8.84191H36.9851V12.9681H37.1652C37.2612 12.4372 37.4292 11.9305 37.6692 11.4479C37.9093 10.9412 38.2213 10.4948 38.6054 10.1087C39.0135 9.72264 39.4935 9.42102 40.0456 9.20386C40.5977 8.96256 41.2458 8.84191 41.9899 8.84191H42.9261V13.8367H41.5939C40.0336 13.8367 38.8694 14.0418 38.1013 14.452C37.3572 14.8622 36.9851 15.6223 36.9851 16.7323V27.844H31.6563ZM47.8776 6.81503C46.7974 6.81503 46.0053 6.57373 45.5012 6.09114C45.0211 5.58442 44.7811 4.94499 44.7811 4.17284V3.37656C44.7811 2.60442 45.0211 1.97705 45.5012 1.49446C46.0053 0.987735 46.7974 0.734375 47.8776 0.734375C48.9578 0.734375 49.7379 0.987735 50.218 1.49446C50.722 1.97705 50.9741 2.60442 50.9741 3.37656V4.17284C50.9741 4.94499 50.722 5.58442 50.218 6.09114C49.7379 6.57373 48.9578 6.81503 47.8776 6.81503ZM45.2132 8.84191H50.542V27.844H45.2132V8.84191ZM54.5155 8.84191H59.8443V12.027H60.0244C60.2884 10.9653 60.8885 10.0967 61.8246 9.42102C62.7848 8.74539 63.877 8.40758 65.1012 8.40758C67.5016 8.40758 69.3139 9.25212 70.5381 10.9412C71.7623 12.6303 72.3744 15.0915 72.3744 18.3248C72.3744 21.5582 71.7623 24.0315 70.5381 25.7447C69.3139 27.4338 67.5016 28.2783 65.1012 28.2783C64.4771 28.2783 63.889 28.1818 63.3369 27.9887C62.7848 27.8198 62.2807 27.5785 61.8246 27.2648C61.3926 26.927 61.0205 26.541 60.7085 26.1066C60.3964 25.6482 60.1684 25.1656 60.0244 24.6589H59.8443V35.0828H54.5155V8.84191ZM63.3369 23.935C64.3451 23.935 65.1732 23.5851 65.8213 22.8853C66.4934 22.1614 66.8295 21.1963 66.8295 19.9898V16.6961C66.8295 15.4896 66.4934 14.5365 65.8213 13.8367C65.1732 13.1128 64.3451 12.7509 63.3369 12.7509C62.3287 12.7509 61.4886 13.0043 60.8165 13.511C60.1684 13.9936 59.8443 14.6692 59.8443 15.5379V21.148C59.8443 22.0167 60.1684 22.7044 60.8165 23.2111C61.4886 23.6937 62.3287 23.935 63.3369 23.935ZM83.3064 28.2783C81.8662 28.2783 80.582 28.0491 79.4538 27.5906C78.3256 27.108 77.3655 26.4444 76.5733 25.5999C75.8052 24.7312 75.2171 23.6816 74.809 22.451C74.425 21.2204 74.233 19.845 74.233 18.3248C74.233 16.8288 74.425 15.4775 74.809 14.2711C75.1931 13.0405 75.7572 11.9908 76.5013 11.1222C77.2694 10.2535 78.2056 9.58993 79.3098 9.13147C80.4139 8.64888 81.6742 8.40758 83.0904 8.40758C84.6506 8.40758 85.9828 8.67301 87.087 9.20386C88.2152 9.73471 89.1274 10.4465 89.8235 11.3393C90.5436 12.2321 91.0597 13.2697 91.3717 14.452C91.7078 15.6103 91.8758 16.8288 91.8758 18.1077V19.7002H79.7418V19.9898C79.7418 21.2445 80.0779 22.2459 80.75 22.9939C81.4221 23.7178 82.4783 24.0797 83.9185 24.0797C85.0227 24.0797 85.9228 23.8626 86.619 23.4282C87.3151 22.9698 87.9632 22.4269 88.5633 21.7995L91.2277 25.1294C90.3876 26.1187 89.2834 26.8908 87.9152 27.4458C86.5709 28.0008 85.0347 28.2783 83.3064 28.2783ZM83.1984 12.3528C82.1182 12.3528 81.2661 12.7147 80.642 13.4386C80.0419 14.1384 79.7418 15.0794 79.7418 16.2618V16.5513H86.3669V16.2256C86.3669 15.0673 86.1029 14.1384 85.5748 13.4386C85.0707 12.7147 84.2786 12.3528 83.1984 12.3528Z" fill="white" stroke="white" stroke-width="2" mask="url(#path-1-inside-1_4141_622)"/>
</svg>
