<svg xmlns="http://www.w3.org/2000/svg" width="28" height="40" viewBox="0 0 28 40" fill="none">
                                                    <path d="M0 0H28V37.463C28 38.3706 26.8882 38.8088 26.2689 38.1453L15.4621 26.5665C14.6714 25.7194 13.3286 25.7194 12.5379 26.5665L1.73105 38.1453C1.11177 38.8088 0 38.3706 0 37.463V0Z" fill="white"></path>
                                                    <path d="M19 12.25H15.81L18.07 10C18.2105 9.85937 18.2893 9.66875 18.2893 9.47C18.2893 9.27125 18.2105 9.08063 18.07 8.94C17.9264 8.8013 17.7346 8.72378 17.535 8.72378C17.3354 8.72378 17.1436 8.8013 17 8.94L14.75 11.2V8C14.75 7.80109 14.671 7.61032 14.5303 7.46967C14.3897 7.32902 14.1989 7.25 14 7.25C13.8011 7.25 13.6103 7.32902 13.4697 7.46967C13.329 7.61032 13.25 7.80109 13.25 8V11.19L11 8.93C10.8564 8.7913 10.6646 8.71378 10.465 8.71378C10.2654 8.71378 10.0736 8.7913 9.93 8.93C9.85895 8.99981 9.80251 9.08307 9.76399 9.17493C9.72546 9.26678 9.70562 9.36539 9.70562 9.465C9.70562 9.56461 9.72546 9.66322 9.76399 9.75507C9.80251 9.84693 9.85895 9.93019 9.93 10L12.19 12.26H9C8.80109 12.26 8.61032 12.339 8.46967 12.4797C8.32902 12.6203 8.25 12.8111 8.25 13.01C8.25 13.2089 8.32902 13.3997 8.46967 13.5403C8.61032 13.681 8.80109 13.76 9 13.76H12.19L9.93 16C9.78955 16.1406 9.71066 16.3312 9.71066 16.53C9.71066 16.7288 9.78955 16.9194 9.93 17.06C10.0723 17.2011 10.2646 17.2802 10.465 17.2802C10.6654 17.2802 10.8577 17.2011 11 17.06L13.25 14.8V18C13.25 18.1989 13.329 18.3897 13.4697 18.5303C13.6103 18.671 13.8011 18.75 14 18.75C14.1989 18.75 14.3897 18.671 14.5303 18.5303C14.671 18.3897 14.75 18.1989 14.75 18V14.81L17 17.07C17.1423 17.2111 17.3346 17.2902 17.535 17.2902C17.7354 17.2902 17.9277 17.2111 18.07 17.07C18.2105 16.9294 18.2893 16.7388 18.2893 16.54C18.2893 16.3412 18.2105 16.1506 18.07 16.01L15.81 13.75H19C19.1989 13.75 19.3897 13.671 19.5303 13.5303C19.671 13.3897 19.75 13.1989 19.75 13C19.75 12.8011 19.671 12.6103 19.5303 12.4697C19.3897 12.329 19.1989 12.25 19 12.25Z" fill="black"></path>
                                                    </svg>