<svg width="110" height="18" viewBox="0 0 110 18" fill="none" xmlns="http://www.w3.org/2000/svg">
<path d="M8.48326 13.2644C8.80106 13.0726 9.19894 13.0726 9.51674 13.2644L12.8234 15.2602C13.1263 15.443 13.5 15.1714 13.4196 14.8268L12.5421 11.0653C12.4578 10.7038 12.5806 10.3253 12.8612 10.0823L15.7834 7.55075C16.0509 7.31907 15.9079 6.87977 15.5553 6.84986L11.7084 6.52348C11.3388 6.49212 11.0169 6.25879 10.8722 5.91729L9.36829 2.36895C9.23045 2.04374 8.76955 2.04374 8.63171 2.36895L7.12782 5.91729C6.98308 6.25879 6.66121 6.49212 6.29164 6.52348L2.44465 6.84986C2.09208 6.87977 1.94912 7.31907 2.21656 7.55075L5.13879 10.0823C5.41936 10.3253 5.54221 10.7038 5.45787 11.0653L4.58037 14.8268C4.49998 15.1714 4.87367 15.443 5.1766 15.2602L8.48326 13.2644Z" fill="white"/>
<path d="M31.4833 13.2644C31.8011 13.0726 32.1989 13.0726 32.5167 13.2644L35.8234 15.2602C36.1263 15.443 36.5 15.1714 36.4196 14.8268L35.5421 11.0653C35.4578 10.7038 35.5806 10.3253 35.8612 10.0823L38.7834 7.55075C39.0509 7.31907 38.9079 6.87977 38.5553 6.84986L34.7084 6.52348C34.3388 6.49212 34.0169 6.25879 33.8722 5.91729L32.3683 2.36895C32.2305 2.04374 31.7695 2.04374 31.6317 2.36895L30.1278 5.91729C29.9831 6.25879 29.6612 6.49212 29.2916 6.52348L25.4447 6.84986C25.0921 6.87977 24.9491 7.31907 25.2166 7.55075L28.1388 10.0823C28.4194 10.3253 28.5422 10.7038 28.4579 11.0653L27.5804 14.8268C27.5 15.1714 27.8737 15.443 28.1766 15.2602L31.4833 13.2644Z" fill="white"/>
<path d="M54.4833 13.2644C54.8011 13.0726 55.1989 13.0726 55.5167 13.2644L58.8234 15.2602C59.1263 15.443 59.5 15.1714 59.4196 14.8268L58.5421 11.0653C58.4578 10.7038 58.5806 10.3253 58.8612 10.0823L61.7834 7.55075C62.0509 7.31907 61.9079 6.87977 61.5553 6.84986L57.7084 6.52348C57.3388 6.49212 57.0169 6.25879 56.8722 5.91729L55.3683 2.36895C55.2305 2.04374 54.7695 2.04374 54.6317 2.36895L53.1278 5.91729C52.9831 6.25879 52.6612 6.49212 52.2916 6.52348L48.4447 6.84986C48.0921 6.87977 47.9491 7.31907 48.2166 7.55075L51.1388 10.0823C51.4194 10.3253 51.5422 10.7038 51.4579 11.0653L50.5804 14.8268C50.5 15.1714 50.8737 15.443 51.1766 15.2602L54.4833 13.2644Z" fill="white"/>
<path d="M77.4833 13.2644C77.8011 13.0726 78.1989 13.0726 78.5167 13.2644L81.8234 15.2602C82.1263 15.443 82.5 15.1714 82.4196 14.8268L81.5421 11.0653C81.4578 10.7038 81.5806 10.3253 81.8612 10.0823L84.7834 7.55075C85.0509 7.31907 84.9079 6.87977 84.5553 6.84986L80.7084 6.52348C80.3388 6.49212 80.0169 6.25879 79.8722 5.91729L78.3683 2.36895C78.2305 2.04374 77.7695 2.04374 77.6317 2.36895L76.1278 5.91729C75.9831 6.25879 75.6612 6.49212 75.2916 6.52348L71.4447 6.84986C71.0921 6.87977 70.9491 7.31907 71.2166 7.55075L74.1388 10.0823C74.4194 10.3253 74.5422 10.7038 74.4579 11.0653L73.5804 14.8268C73.5 15.1714 73.8737 15.443 74.1766 15.2602L77.4833 13.2644Z" fill="white"/>
<path d="M100.483 13.2644C100.801 13.0726 101.199 13.0726 101.517 13.2644L104.823 15.2602C105.126 15.443 105.5 15.1714 105.42 14.8268L104.542 11.0653C104.458 10.7038 104.581 10.3253 104.861 10.0823L107.783 7.55075C108.051 7.31907 107.908 6.87977 107.555 6.84986L103.708 6.52348C103.339 6.49212 103.017 6.25879 102.872 5.91729L101.368 2.36895C101.23 2.04374 100.77 2.04374 100.632 2.36895L99.1278 5.91729C98.9831 6.25879 98.6612 6.49212 98.2916 6.52348L94.4447 6.84986C94.0921 6.87977 93.9491 7.31907 94.2166 7.55075L97.1388 10.0823C97.4194 10.3253 97.5422 10.7038 97.4579 11.0653L96.5804 14.8268C96.5 15.1714 96.8737 15.443 97.1766 15.2602L100.483 13.2644Z" fill="white"/>
</svg>
