<svg xmlns="http://www.w3.org/2000/svg" width="28" height="28" viewBox="0 0 28 28" fill="none">
  <path d="M4.29289 19.541C4.10536 19.7285 4 19.9829 4 20.2481V23.5C4 23.7761 4.22386 24 4.5 24H7.75189C8.0171 24 8.27146 23.8946 8.45899 23.7071L20.0998 12.0663C20.295 11.8711 20.295 11.5545 20.0998 11.3592L16.6408 7.90023C16.4455 7.70497 16.1289 7.70497 15.9337 7.90023L4.29289 19.541ZM23.6751 8.49099C23.7781 8.38822 23.8598 8.26613 23.9156 8.13174C23.9713 7.99734 24 7.85327 24 7.70777C24 7.56227 23.9713 7.41819 23.9156 7.2838C23.8598 7.1494 23.7781 7.02732 23.6751 6.92454L21.0755 4.32489C20.9727 4.2219 20.8506 4.1402 20.7162 4.08445C20.5818 4.0287 20.4377 4 20.2922 4C20.1467 4 20.0027 4.0287 19.8683 4.08445C19.7339 4.1402 19.6118 4.2219 19.509 4.32489L17.8295 6.0044C17.6342 6.19966 17.6342 6.51624 17.8295 6.7115L21.2885 10.1705C21.4838 10.3658 21.8003 10.3658 21.9956 10.1705L23.6751 8.49099Z" fill="#FFFFFF"/>
  <path d="M14 24L24 24" stroke="#FFFFFF" stroke-width="1.5" stroke-linecap="round"/>
</svg>
